<svg width="276" height="92" viewBox="0 0 276 92" fill="none" xmlns="http://www.w3.org/2000/svg">
<path fill-rule="evenodd" clip-rule="evenodd" d="M276 10.5712C276 7.76755 274.877 5.07872 272.878 3.09623C270.879 1.11375 268.169 0 265.342 0L58.6582 0.125027C55.8315 0.125027 53.1205 1.23878 51.1217 3.22126C49.1229 5.20375 48 7.89257 48 10.6962V81.1045C48 83.9081 49.1229 86.5969 51.1217 88.5794C53.1205 90.5619 55.8315 91.6757 58.6582 91.6757L265.342 91.6757C268.169 91.6757 270.879 90.5619 272.878 88.5794C274.877 86.5969 276 83.9081 276 81.1045C276 46.2129 276 45.5049 276 10.5712Z" fill="#F1F1F1"/>
<path d="M130.564 29.5102C132.05 28.7281 132.989 27.3203 132.989 25.4953C132.989 22.6536 130.643 20.7504 126.08 20.7504H117.164V39H126.602C131.399 39 133.901 37.175 133.901 34.0205C133.901 31.7262 132.598 30.162 130.564 29.5102ZM125.559 23.931C127.618 23.931 128.739 24.635 128.739 26.0689C128.739 27.5027 127.618 28.2327 125.559 28.2327H121.361V23.931H125.559ZM126.289 35.8194H121.361V31.3091H126.289C128.479 31.3091 129.652 32.0391 129.652 33.5773C129.652 35.1415 128.479 35.8194 126.289 35.8194ZM137.099 39H141.322V20.7504H137.099V39ZM151.65 39.3129C156.864 39.3129 159.393 36.7058 159.393 33.6555C159.393 26.9553 148.782 29.2756 148.782 25.9124C148.782 24.7653 149.747 23.8268 152.249 23.8268C153.866 23.8268 155.613 24.296 157.307 25.2607L158.611 22.0539C156.916 20.985 154.57 20.4375 152.275 20.4375C147.087 20.4375 144.585 23.0186 144.585 26.121C144.585 32.8994 155.195 30.553 155.195 33.9683C155.195 35.0894 154.179 35.9236 151.676 35.9236C149.486 35.9236 147.192 35.1415 145.653 34.0205L144.22 37.2011C145.836 38.4525 148.756 39.3129 151.65 39.3129ZM174.845 20.7504V31.8305L165.772 20.7504H162.279V39H166.45V27.9199L175.549 39H179.016V20.7504H174.845ZM183.334 39H187.557V20.7504H183.334V39ZM197.885 39.3129C203.099 39.3129 205.628 36.7058 205.628 33.6555C205.628 26.9553 195.017 29.2756 195.017 25.9124C195.017 24.7653 195.982 23.8268 198.484 23.8268C200.101 23.8268 201.848 24.296 203.542 25.2607L204.846 22.0539C203.151 20.985 200.805 20.4375 198.51 20.4375C193.322 20.4375 190.82 23.0186 190.82 26.121C190.82 32.8994 201.43 30.553 201.43 33.9683C201.43 35.0894 200.414 35.9236 197.911 35.9236C195.721 35.9236 193.427 35.1415 191.888 34.0205L190.455 37.2011C192.071 38.4525 194.991 39.3129 197.885 39.3129ZM212.873 41.6071H216.497L225.1 17.0483H221.476L212.873 41.6071ZM125.272 71.3129C130.46 71.3129 133.536 68.3408 133.536 62.9702V52.7504H129.365V62.8137C129.365 66.2812 127.879 67.7151 125.298 67.7151C122.743 67.7151 121.231 66.2812 121.231 62.8137V52.7504H117.007V62.9702C117.007 68.3408 120.084 71.3129 125.272 71.3129ZM143.706 71.3129C148.92 71.3129 151.449 68.7058 151.449 65.6555C151.449 58.9553 140.838 61.2756 140.838 57.9124C140.838 56.7653 141.803 55.8268 144.306 55.8268C145.922 55.8268 147.669 56.296 149.364 57.2607L150.667 54.0539C148.973 52.985 146.626 52.4375 144.332 52.4375C139.144 52.4375 136.641 55.0186 136.641 58.121C136.641 64.8994 147.252 62.553 147.252 65.9683C147.252 67.0894 146.235 67.9236 143.732 67.9236C141.542 67.9236 139.248 67.1415 137.71 66.0205L136.276 69.2011C137.892 70.4525 140.812 71.3129 143.706 71.3129ZM167.97 71H172.402L164.242 52.7504H160.071L151.937 71H156.264L157.881 67.0894H166.354L167.97 71ZM159.237 63.8827L162.13 56.8957L165.024 63.8827H159.237ZM186.81 52.7504V59.946H178.519V52.7504H174.296V71H178.519V63.5177H186.81V71H191.033V52.7504H186.81ZM208.986 71H213.418L205.258 52.7504H201.087L192.952 71H197.28L198.897 67.0894H207.37L208.986 71ZM200.252 63.8827L203.146 56.8957L206.04 63.8827H200.252Z" fill="black"/>
<path fill-rule="evenodd" clip-rule="evenodd" d="M104.048 42.3452L95.6957 37.0499C94.7267 36.4352 93.9285 35.5894 93.3742 34.5898C92.8198 33.5901 92.527 32.4686 92.5226 31.3278V10.5712C92.5226 7.76755 91.3997 5.07872 89.4009 3.09623C87.4021 1.11375 84.6911 0 81.8644 0L10.6582 0.125027C7.83148 0.125027 5.12052 1.23878 3.12172 3.22126C1.12291 5.20375 0 7.89257 0 10.6962V81.1045C0 83.9081 1.12291 86.5969 3.12172 88.5794C5.12052 90.5619 7.83148 91.6757 10.6582 91.6757L81.8644 91.6757C84.6911 91.6757 87.4021 90.5619 89.4009 88.5794C91.3997 86.5969 92.5226 83.9081 92.5226 81.1045V60.3716C92.5271 59.2247 92.823 58.0974 93.3829 57.0939C93.9429 56.0904 94.7487 55.243 95.7261 54.6301L104.029 49.4264C104.631 49.0492 105.128 48.5274 105.472 47.9094C105.817 47.2913 105.998 46.597 106 45.8908C106.002 45.1846 105.824 44.4894 105.483 43.8696C105.141 43.2498 104.648 42.7254 104.048 42.3452Z" fill="#1C1C1C"/>
<path fill-rule="evenodd" clip-rule="evenodd" d="M53 70V29.7515C53 28.0547 51.76 26.6145 50.06 26.3383L28.08 23.0434C27.06 22.8856 26.02 23.1618 25.24 23.8129C24.46 24.4837 24 25.4504 24 26.4566V68.027C24 69.1122 24.9 70 26 70H32.5V59.6419C32.5 57.7282 34.06 56.1892 36 56.1892H41C42.94 56.1892 44.5 57.7282 44.5 59.6419V70H53ZM35 48.7906C35.82 48.7906 36.5 49.4614 36.5 50.2703C36.5 51.0793 35.82 51.7501 35 51.7501H32C31.18 51.7501 30.5 51.0793 30.5 50.2703C30.5 49.4614 31.18 48.7906 32 48.7906H35ZM35 42.8717C35.82 42.8717 36.5 43.5425 36.5 44.3514C36.5 45.1604 35.82 45.8312 35 45.8312H32C31.18 45.8312 30.5 45.1604 30.5 44.3514C30.5 43.5425 31.18 42.8717 32 42.8717H35ZM35 36.9528C35.82 36.9528 36.5 37.6236 36.5 38.4325C36.5 39.2415 35.82 39.9123 35 39.9123H32C31.18 39.9123 30.5 39.2415 30.5 38.4325C30.5 37.6236 31.18 36.9528 32 36.9528H35ZM35 31.0339C35.82 31.0339 36.5 31.7047 36.5 32.5136C36.5 33.3226 35.82 33.9934 35 33.9934H32C31.18 33.9934 30.5 33.3226 30.5 32.5136C30.5 31.7047 31.18 31.0339 32 31.0339H35ZM45 48.7906C45.82 48.7906 46.5 49.4614 46.5 50.2703C46.5 51.0793 45.82 51.7501 45 51.7501H42C41.18 51.7501 40.5 51.0793 40.5 50.2703C40.5 49.4614 41.18 48.7906 42 48.7906H45ZM45 42.8717C45.82 42.8717 46.5 43.5425 46.5 44.3514C46.5 45.1604 45.82 45.8312 45 45.8312H42C41.18 45.8312 40.5 45.1604 40.5 44.3514C40.5 43.5425 41.18 42.8717 42 42.8717H45ZM45 36.9528C45.82 36.9528 46.5 37.6236 46.5 38.4325C46.5 39.2415 45.82 39.9123 45 39.9123H42C41.18 39.9123 40.5 39.2415 40.5 38.4325C40.5 37.6236 41.18 36.9528 42 36.9528H45ZM45 31.0339C45.82 31.0339 46.5 31.7047 46.5 32.5136C46.5 33.3226 45.82 33.9934 45 33.9934H42C41.18 33.9934 40.5 33.3226 40.5 32.5136C40.5 31.7047 41.18 31.0339 42 31.0339H45ZM72 66.5473V47.4095C72 45.7917 70.88 44.3909 69.24 44.0358L55 41.096V70H68.5C70.44 70 72 68.4611 72 66.5473ZM64.5 61.1217C65.32 61.1217 66 61.7925 66 62.6014C66 63.4103 65.32 64.0811 64.5 64.0811H61.5C60.68 64.0811 60 63.4103 60 62.6014C60 61.7925 60.68 61.1217 61.5 61.1217H64.5ZM64.5 55.2028C65.32 55.2028 66 55.8736 66 56.6825C66 57.4914 65.32 58.1622 64.5 58.1622H61.5C60.68 58.1622 60 57.4914 60 56.6825C60 55.8736 60.68 55.2028 61.5 55.2028H64.5ZM64.5 49.2839C65.32 49.2839 66 49.9547 66 50.7636C66 51.5725 65.32 52.2433 64.5 52.2433H61.5C60.68 52.2433 60 51.5725 60 50.7636C60 49.9547 60.68 49.2839 61.5 49.2839H64.5Z" fill="white"/>
</svg>
