<svg width="276" height="92" viewBox="0 0 276 92" fill="none" xmlns="http://www.w3.org/2000/svg">
<path fill-rule="evenodd" clip-rule="evenodd" d="M276 10.5712C276 7.76755 274.877 5.07872 272.878 3.09623C270.879 1.11375 268.169 0 265.342 0L58.6582 0.125027C55.8315 0.125027 53.1205 1.23878 51.1217 3.22126C49.1229 5.20375 48 7.89257 48 10.6962V81.1045C48 83.9081 49.1229 86.5969 51.1217 88.5794C53.1205 90.5619 55.8315 91.6757 58.6582 91.6757L265.342 91.6757C268.169 91.6757 270.879 90.5619 272.878 88.5794C274.877 86.5969 276 83.9081 276 81.1045C276 46.2129 276 45.5049 276 10.5712Z" fill="#F1F1F1"/>
<path d="M121.361 35.6108V31.3873H129.834V28.1024H121.361V24.1396H130.955V20.7504H117.164V39H131.294V35.6108H121.361ZM147.748 20.7504L142.117 33.7858L136.564 20.7504H132.002L139.875 39H144.046L151.946 20.7504H147.748ZM157.667 35.6108V31.3873H166.14V28.1024H157.667V24.1396H167.261V20.7504H153.47V39H167.6V35.6108H157.667ZM183.527 20.7504V31.8305L174.454 20.7504H170.961V39H175.132V27.9199L184.231 39H187.698V20.7504H183.527ZM195.796 39H200.02V24.1917H205.859V20.7504H189.956V24.1917H195.796V39ZM129.652 71H134.579L126.575 60.8845L134.136 52.7504H129.443L121.361 61.2756V52.7504H117.164V71H121.361V66.3855L123.812 63.8305L129.652 71ZM140.66 67.6108V63.3873H149.133V60.1024H140.66V56.1396H150.254V52.7504H136.462V71H150.593V67.6108H140.66ZM166.234 66.9329C165.165 67.5065 164.096 67.7151 162.949 67.7151C159.456 67.7151 157.031 65.2905 157.031 61.8752C157.031 58.4078 159.456 56.0353 163.001 56.0353C164.852 56.0353 166.39 56.6871 167.72 58.0949L170.431 55.5921C168.659 53.5325 165.999 52.4375 162.793 52.4375C156.979 52.4375 152.755 56.3742 152.755 61.8752C152.755 67.3761 156.979 71.3129 162.714 71.3129C165.321 71.3129 168.085 70.5047 170.092 68.9925V61.5884H166.234V66.9329ZM174.016 71H178.239V52.7504H174.016V71ZM196.205 71H200.637L192.477 52.7504H188.306L180.172 71H184.499L186.116 67.0894H194.589L196.205 71ZM187.472 63.8827L190.365 56.8957L193.259 63.8827H187.472ZM205.394 71H209.618V56.1917H215.458V52.7504H199.555V56.1917H205.394V71ZM230.449 71H234.881L226.721 52.7504H222.549L214.415 71H218.743L220.359 67.0894H228.832L230.449 71ZM221.715 63.8827L224.609 56.8957L227.503 63.8827H221.715ZM249.34 52.7504V63.8305L240.268 52.7504H236.774V71H240.946V59.9199L250.044 71H253.512V52.7504H249.34Z" fill="black"/>
<path fill-rule="evenodd" clip-rule="evenodd" d="M104.048 42.3452L95.6957 37.0499C94.7267 36.4352 93.9285 35.5894 93.3742 34.5898C92.8198 33.5901 92.527 32.4686 92.5226 31.3278V10.5712C92.5226 7.76755 91.3997 5.07872 89.4009 3.09623C87.4021 1.11375 84.6911 0 81.8644 0L10.6582 0.125027C7.83148 0.125027 5.12052 1.23878 3.12172 3.22126C1.12291 5.20375 0 7.89257 0 10.6962V81.1045C0 83.9081 1.12291 86.5969 3.12172 88.5794C5.12052 90.5619 7.83148 91.6757 10.6582 91.6757L81.8644 91.6757C84.6911 91.6757 87.4021 90.5619 89.4009 88.5794C91.3997 86.5969 92.5226 83.9081 92.5226 81.1045V60.3716C92.5271 59.2247 92.823 58.0974 93.3829 57.0939C93.9429 56.0904 94.7487 55.243 95.7261 54.6301L104.029 49.4264C104.631 49.0492 105.128 48.5274 105.472 47.9094C105.817 47.2913 105.998 46.597 106 45.8908C106.002 45.1846 105.824 44.4894 105.483 43.8696C105.141 43.2498 104.648 42.7254 104.048 42.3452Z" fill="#1C1C1C"/>
<path fill-rule="evenodd" clip-rule="evenodd" d="M34.3285 27.7288V20.3077C34.3285 20.142 34.4713 20 34.6379 20H38.374C38.5406 20 38.6834 20.142 38.6834 20.3077V27.7288C38.6834 27.8945 38.5406 28.0365 38.374 28.0365H34.6379C34.4713 28.0365 34.3285 27.8945 34.3285 27.7288ZM71 28.4744V36.073H25V28.4744C25 26.8884 26.2732 25.5983 27.8676 25.5628H32.4604V27.5394C32.4604 28.723 33.329 29.8947 34.5189 29.8947H38.1837C39.4449 29.8001 40.4563 28.8058 40.5396 27.5394V25.5628H55.4604V27.5394C55.5556 28.8058 56.5551 29.8001 57.8282 29.8947H61.493C62.671 29.8947 63.5396 28.723 63.5396 27.5394V25.5628H68.1443C69.7387 25.5983 71 26.8884 71 28.4744ZM57.3285 20.3077V27.7288C57.3285 27.8945 57.4713 28.0365 57.6379 28.0365H61.374C61.5406 28.0365 61.6834 27.8945 61.6834 27.7288V20.3077C61.6834 20.142 61.5406 20 61.374 20H57.6379C57.4713 20 57.3285 20.142 57.3285 20.3077ZM43.0978 53.6965L39.4211 50.2405L44.4661 49.4948C44.7517 49.4475 45.0135 49.27 45.1443 48.9977L47.3813 44.4883L49.6182 48.9977C49.761 49.27 50.0109 49.4475 50.3083 49.4948L55.3414 50.2405L51.6767 53.6965C51.4744 53.9214 51.3911 54.2173 51.4268 54.5014L52.2954 59.5079L47.8215 57.1644L47.3813 57.0343L46.941 57.1644L42.4672 59.5079L43.3357 54.5014C43.3714 54.2173 43.2882 53.9214 43.0978 53.6965ZM71 37.9313H25V64.2186C25.0357 65.7572 26.3088 67 27.8676 67H68.1443C69.7031 67 70.9762 65.7572 71 64.2186V37.9313ZM41.4201 54.6789L36.8153 50.2287C36.5535 50.0038 36.4584 49.6369 36.5654 49.3055C36.6606 48.9622 36.9581 48.7255 37.3151 48.69L43.7165 47.6958L46.5722 41.9436C46.8339 41.5057 47.4051 41.3518 47.8453 41.6004C47.9881 41.6832 48.1071 41.8016 48.1904 41.9436L51.046 47.6958L57.4475 48.69C57.8044 48.7255 58.1019 48.9622 58.1971 49.3055C58.3161 49.6369 58.209 50.0038 57.9472 50.2287L53.3544 54.6789L54.4728 61.0466C54.5085 61.3898 54.3658 61.7212 54.0921 61.9224C53.9374 62.029 53.7351 62.1 53.5329 62.1C53.3782 62.1237 53.2235 62.0763 53.1045 61.9816L47.3813 59.0108L41.658 61.9816C41.3487 62.171 40.956 62.1473 40.6705 61.9224C40.3968 61.7212 40.254 61.3898 40.2897 61.0466L41.4201 54.6789Z" fill="white"/>
</svg>
