<svg width="276" height="92" viewBox="0 0 276 92" fill="none" xmlns="http://www.w3.org/2000/svg">
<path fill-rule="evenodd" clip-rule="evenodd" d="M276 10.5712C276 7.76755 274.877 5.07872 272.878 3.09623C270.879 1.11375 268.169 0 265.342 0L58.6582 0.125027C55.8315 0.125027 53.1205 1.23878 51.1217 3.22126C49.1229 5.20375 48 7.89257 48 10.6962V81.1045C48 83.9081 49.1229 86.5969 51.1217 88.5794C53.1205 90.5619 55.8315 91.6757 58.6582 91.6757L265.342 91.6757C268.169 91.6757 270.879 90.5619 272.878 88.5794C274.877 86.5969 276 83.9081 276 81.1045C276 46.2129 276 45.5049 276 10.5712Z" fill="#F1F1F1"/>
<path d="M117.164 55H121.387V36.7504H117.164V55ZM138.285 36.7504V47.8305L129.212 36.7504H125.718V55H129.89V43.9199L138.988 55H142.456V36.7504H138.285ZM146.774 55H155.064C161.034 55 165.128 51.4022 165.128 45.8752C165.128 40.3482 161.034 36.7504 155.064 36.7504H146.774V55ZM150.997 51.5326V40.2178H154.856C158.479 40.2178 160.852 42.3817 160.852 45.8752C160.852 49.3687 158.479 51.5326 154.856 51.5326H150.997ZM168.313 55H172.536V36.7504H168.313V55ZM190.114 36.7504L184.482 49.7858L178.929 36.7504H174.367L182.24 55H186.412L194.311 36.7504H190.114ZM195.835 55H200.058V36.7504H195.835V55ZM204.389 55H212.68C218.65 55 222.743 51.4022 222.743 45.8752C222.743 40.3482 218.65 36.7504 212.68 36.7504H204.389V55ZM208.613 51.5326V40.2178H212.471C216.095 40.2178 218.468 42.3817 218.468 45.8752C218.468 49.3687 216.095 51.5326 212.471 51.5326H208.613ZM234.036 55.3129C239.224 55.3129 242.301 52.3408 242.301 46.9702V36.7504H238.129V46.8137C238.129 50.2812 236.643 51.7151 234.062 51.7151C231.507 51.7151 229.995 50.2812 229.995 46.8137V36.7504H225.772V46.9702C225.772 52.3408 228.848 55.3129 234.036 55.3129Z" fill="black"/>
<path fill-rule="evenodd" clip-rule="evenodd" d="M104.048 42.3452L95.6957 37.0499C94.7267 36.4352 93.9285 35.5894 93.3742 34.5898C92.8198 33.5901 92.527 32.4686 92.5226 31.3278V10.5712C92.5226 7.76755 91.3997 5.07872 89.4009 3.09623C87.4021 1.11375 84.6911 0 81.8644 0L10.6582 0.125027C7.83148 0.125027 5.12052 1.23878 3.12172 3.22126C1.12291 5.20375 0 7.89257 0 10.6962V81.1045C0 83.9081 1.12291 86.5969 3.12172 88.5794C5.12052 90.5619 7.83148 91.6757 10.6582 91.6757L81.8644 91.6757C84.6911 91.6757 87.4021 90.5619 89.4009 88.5794C91.3997 86.5969 92.5226 83.9081 92.5226 81.1045V60.3716C92.5271 59.2247 92.823 58.0974 93.3829 57.0939C93.9429 56.0904 94.7487 55.243 95.7261 54.6301L104.029 49.4264C104.631 49.0492 105.128 48.5274 105.472 47.9094C105.817 47.2913 105.998 46.597 106 45.8908C106.002 45.1846 105.824 44.4894 105.483 43.8696C105.141 43.2498 104.648 42.7254 104.048 42.3452Z" fill="#1C1C1C"/>
<path fill-rule="evenodd" clip-rule="evenodd" d="M35.9424 32.3186C35.9424 35.4305 37.0562 38.1201 39.2472 40.3232C41.4291 42.5264 44.1131 43.6371 47.2079 43.6371C50.2935 43.6371 52.9775 42.5264 55.1594 40.3232C57.3504 38.1201 58.4642 35.4305 58.4642 32.3186C58.4642 29.2066 57.3504 26.517 55.1594 24.3139C52.9775 22.1199 50.2935 21 47.2079 21C44.1131 21 41.4291 22.1199 39.2472 24.3139C37.0562 26.517 35.9424 29.2066 35.9424 32.3186ZM64.6903 65.8244C66.224 64.3557 67 62.3729 67 59.9127C67 58.9672 66.9635 58.04 66.8996 57.1404C66.8357 56.2225 66.7079 55.2219 66.5253 54.1754C66.3336 53.1106 66.0871 52.1008 65.7949 51.1828C65.4937 50.2373 65.0829 49.301 64.5808 48.4014C64.0513 47.465 63.4305 46.6572 62.7367 45.9871C62.0063 45.2895 61.1208 44.7295 60.0892 44.3164C59.0667 43.9125 57.9347 43.7014 56.7114 43.7014C56.2367 43.7014 55.7802 43.9033 54.8855 44.4816C54.7729 44.5553 54.6563 44.6316 54.536 44.7105C54.0714 45.0149 53.5504 45.3563 52.9775 45.7209C52.3659 46.1156 51.5351 46.4828 50.5126 46.8133C49.5176 47.1346 48.4951 47.2998 47.5 47.2998C46.4958 47.2998 45.4824 47.1346 44.4782 46.8133C43.4558 46.4828 42.625 46.1156 42.0133 45.7209C41.7007 45.5167 41.3988 45.3217 41.111 45.1357C40.7518 44.9035 40.4145 44.6855 40.1053 44.4816C39.2198 43.9033 38.7542 43.7014 38.2795 43.7014C37.0653 43.7014 35.9242 43.9125 34.9017 44.3164C33.8792 44.7295 32.9845 45.2895 32.2633 45.9871C31.5604 46.6572 30.9487 47.465 30.4192 48.4014C29.908 49.301 29.4972 50.2373 29.1959 51.1828C28.9038 52.1008 28.6664 53.1106 28.4747 54.1754C28.283 55.2219 28.1552 56.2225 28.0913 57.1404C28.0274 58.04 28 58.9764 28 59.9127C28 62.3729 28.776 64.3557 30.3097 65.8244C31.816 67.2656 33.8153 68 36.2437 68H58.7472C61.1847 68 63.184 67.2656 64.6903 65.8244Z" fill="white"/>
</svg>
