<svg width="1080" height="555" viewBox="0 0 1080 555" fill="none" xmlns="http://www.w3.org/2000/svg">
<rect width="1080" height="555" fill="#303030"/>
<path d="M386.576 91V64.7437H399.404C402.704 64.7437 405.18 65.3689 406.83 66.6192C408.506 67.8695 409.343 69.5199 409.343 71.5703C409.343 72.9457 409.006 74.146 408.331 75.1712C407.656 76.1714 406.73 76.9466 405.555 77.4968C404.38 78.0469 403.029 78.322 401.504 78.322L402.217 76.7841C403.867 76.7841 405.33 77.0592 406.605 77.6093C407.881 78.1344 408.868 78.9221 409.569 79.9724C410.294 81.0226 410.656 82.3104 410.656 83.8358C410.656 86.0863 409.769 87.8492 407.993 89.1246C406.218 90.3749 403.605 91 400.154 91H386.576ZM392.614 86.4239H399.704C401.279 86.4239 402.467 86.1738 403.267 85.6737C404.092 85.1486 404.505 84.3234 404.505 83.1981C404.505 82.0979 404.092 81.2852 403.267 80.76C402.467 80.2099 401.279 79.9348 399.704 79.9348H392.164V75.5088H398.653C400.129 75.5088 401.254 75.2587 402.029 74.7586C402.829 74.2335 403.229 73.4458 403.229 72.3955C403.229 71.3703 402.829 70.6076 402.029 70.1075C401.254 69.5824 400.129 69.3198 398.653 69.3198H392.614V86.4239ZM427.222 91V87.0616L426.847 86.1988V79.1472C426.847 77.8969 426.459 76.9216 425.684 76.2215C424.934 75.5213 423.771 75.1712 422.196 75.1712C421.121 75.1712 420.058 75.3463 419.008 75.6963C417.982 76.0214 417.107 76.4715 416.382 77.0467L414.281 72.9582C415.382 72.183 416.707 71.5828 418.257 71.1577C419.808 70.7326 421.383 70.5201 422.984 70.5201C426.059 70.5201 428.447 71.2453 430.148 72.6956C431.848 74.146 432.698 76.409 432.698 79.4847V91H427.222ZM421.071 91.3001C419.495 91.3001 418.145 91.0375 417.02 90.5124C415.894 89.9623 415.032 89.2246 414.431 88.2994C413.831 87.3741 413.531 86.3364 413.531 85.1861C413.531 83.9858 413.819 82.9356 414.394 82.0354C414.994 81.1351 415.932 80.435 417.207 79.9348C418.482 79.4097 420.145 79.1472 422.196 79.1472H427.56V82.5605H422.834C421.458 82.5605 420.508 82.7855 419.983 83.2356C419.483 83.6857 419.233 84.2484 419.233 84.9235C419.233 85.6737 419.52 86.2739 420.095 86.724C420.695 87.1491 421.508 87.3616 422.533 87.3616C423.509 87.3616 424.384 87.1366 425.159 86.6865C425.934 86.2114 426.497 85.5237 426.847 84.6235L427.747 87.3241C427.322 88.6244 426.547 89.6122 425.422 90.2873C424.296 90.9625 422.846 91.3001 421.071 91.3001ZM447.63 98.5768C445.73 98.5768 443.892 98.3393 442.117 97.8641C440.366 97.414 438.903 96.7264 437.728 95.8012L440.054 91.6001C440.904 92.3003 441.979 92.8504 443.279 93.2505C444.605 93.6756 445.905 93.8882 447.18 93.8882C449.256 93.8882 450.756 93.4256 451.681 92.5004C452.632 91.5751 453.107 90.1998 453.107 88.3744V85.3361L453.482 80.2724L453.407 75.1712V70.8202H458.958V87.6242C458.958 91.3751 457.983 94.1383 456.032 95.9137C454.082 97.6891 451.281 98.5768 447.63 98.5768ZM446.73 90.0248C444.855 90.0248 443.154 89.6247 441.629 88.8245C440.129 87.9993 438.916 86.8615 437.991 85.4112C437.09 83.9358 436.64 82.2229 436.64 80.2724C436.64 78.297 437.09 76.584 437.991 75.1337C438.916 73.6583 440.129 72.5206 441.629 71.7204C443.154 70.9202 444.855 70.5201 446.73 70.5201C448.431 70.5201 449.931 70.8702 451.231 71.5703C452.532 72.2455 453.544 73.3083 454.27 74.7586C454.995 76.184 455.357 78.0219 455.357 80.2724C455.357 82.498 454.995 84.3359 454.27 85.7863C453.544 87.2116 452.532 88.2743 451.231 88.9745C449.931 89.6747 448.431 90.0248 446.73 90.0248ZM447.893 85.2236C448.918 85.2236 449.831 85.0236 450.631 84.6235C451.431 84.1984 452.057 83.6107 452.507 82.8606C452.957 82.1104 453.182 81.2477 453.182 80.2724C453.182 79.2722 452.957 78.4095 452.507 77.6843C452.057 76.9341 451.431 76.359 450.631 75.9589C449.831 75.5338 448.918 75.3212 447.893 75.3212C446.868 75.3212 445.955 75.5338 445.155 75.9589C444.355 76.359 443.717 76.9341 443.242 77.6843C442.792 78.4095 442.567 79.2722 442.567 80.2724C442.567 81.2477 442.792 82.1104 443.242 82.8606C443.717 83.6107 444.355 84.1984 445.155 84.6235C445.955 85.0236 446.868 85.2236 447.893 85.2236ZM464.404 91V70.8202H470.256V91H464.404ZM467.33 68.007C466.255 68.007 465.38 67.6944 464.704 67.0693C464.029 66.4441 463.692 65.6689 463.692 64.7437C463.692 63.8185 464.029 63.0433 464.704 62.4182C465.38 61.793 466.255 61.4804 467.33 61.4804C468.405 61.4804 469.28 61.7805 469.956 62.3806C470.631 62.9558 470.968 63.706 470.968 64.6312C470.968 65.6064 470.631 66.4191 469.956 67.0693C469.305 67.6944 468.43 68.007 467.33 68.007ZM483.271 91L494.974 64.7437H500.975L512.715 91H506.339L496.736 67.8194H499.137L489.497 91H483.271ZM489.122 85.3737L490.735 80.76H504.238L505.889 85.3737H489.122ZM527.292 70.5201C528.893 70.5201 530.318 70.8452 531.568 71.4953C532.844 72.1205 533.844 73.0957 534.569 74.421C535.294 75.7213 535.657 77.3967 535.657 79.4472V91H529.805V80.3474C529.805 78.7221 529.443 77.5218 528.718 76.7466C528.017 75.9714 527.017 75.5838 525.717 75.5838C524.792 75.5838 523.954 75.7839 523.204 76.184C522.479 76.559 521.903 77.1467 521.478 77.9469C521.078 78.7471 520.878 79.7723 520.878 81.0226V91H515.027V70.8202H520.616V76.409L519.565 74.7211C520.291 73.3708 521.328 72.333 522.679 71.6079C524.029 70.8827 525.567 70.5201 527.292 70.5201ZM549.772 91.3001C547.871 91.3001 546.158 90.875 544.633 90.0248C543.108 89.1496 541.895 87.9368 540.995 86.3864C540.12 84.836 539.682 83.0106 539.682 80.9101C539.682 78.7846 540.12 76.9466 540.995 75.3963C541.895 73.8459 543.108 72.6456 544.633 71.7954C546.158 70.9452 547.871 70.5201 549.772 70.5201C551.472 70.5201 552.96 70.8952 554.235 71.6454C555.511 72.3955 556.498 73.5333 557.199 75.0587C557.899 76.584 558.249 78.5345 558.249 80.9101C558.249 83.2606 557.911 85.2111 557.236 86.7615C556.561 88.2869 555.586 89.4246 554.31 90.1748C553.06 90.925 551.547 91.3001 549.772 91.3001ZM550.785 86.4989C551.735 86.4989 552.598 86.2739 553.373 85.8238C554.148 85.3737 554.761 84.736 555.211 83.9108C555.686 83.0606 555.923 82.0604 555.923 80.9101C555.923 79.7348 555.686 78.7346 555.211 77.9094C554.761 77.0842 554.148 76.4465 553.373 75.9964C552.598 75.5463 551.735 75.3212 550.785 75.3212C549.809 75.3212 548.934 75.5463 548.159 75.9964C547.384 76.4465 546.759 77.0842 546.284 77.9094C545.833 78.7346 545.608 79.7348 545.608 80.9101C545.608 82.0604 545.833 83.0606 546.284 83.9108C546.759 84.736 547.384 85.3737 548.159 85.8238C548.934 86.2739 549.809 86.4989 550.785 86.4989ZM556.073 91V86.874L556.186 80.8726L555.811 74.9086V63.1683H561.662V91H556.073ZM579.456 91V87.0616L579.081 86.1988V79.1472C579.081 77.8969 578.693 76.9216 577.918 76.2215C577.168 75.5213 576.005 75.1712 574.43 75.1712C573.354 75.1712 572.292 75.3463 571.241 75.6963C570.216 76.0214 569.341 76.4715 568.616 77.0467L566.515 72.9582C567.615 72.183 568.941 71.5828 570.491 71.1577C572.042 70.7326 573.617 70.5201 575.217 70.5201C578.293 70.5201 580.681 71.2453 582.382 72.6956C584.082 74.146 584.932 76.409 584.932 79.4847V91H579.456ZM573.304 91.3001C571.729 91.3001 570.379 91.0375 569.253 90.5124C568.128 89.9623 567.265 89.2246 566.665 88.2994C566.065 87.3741 565.765 86.3364 565.765 85.1861C565.765 83.9858 566.053 82.9356 566.628 82.0354C567.228 81.1351 568.166 80.435 569.441 79.9348C570.716 79.4097 572.379 79.1472 574.43 79.1472H579.793V82.5605H575.067C573.692 82.5605 572.742 82.7855 572.217 83.2356C571.716 83.6857 571.466 84.2484 571.466 84.9235C571.466 85.6737 571.754 86.2739 572.329 86.724C572.929 87.1491 573.742 87.3616 574.767 87.3616C575.742 87.3616 576.618 87.1366 577.393 86.6865C578.168 86.2114 578.731 85.5237 579.081 84.6235L579.981 87.3241C579.556 88.6244 578.781 89.6122 577.655 90.2873C576.53 90.9625 575.08 91.3001 573.304 91.3001ZM607.79 91V80.2724L609.178 83.9483L597.625 64.7437H604.076L612.928 79.4847H609.215L618.105 64.7437H624.069L612.516 83.9483L613.866 80.2724V91H607.79ZM636.122 91V87.0616L635.747 86.1988V79.1472C635.747 77.8969 635.36 76.9216 634.584 76.2215C633.834 75.5213 632.671 75.1712 631.096 75.1712C630.021 75.1712 628.958 75.3463 627.908 75.6963C626.882 76.0214 626.007 76.4715 625.282 77.0467L623.182 72.9582C624.282 72.183 625.607 71.5828 627.158 71.1577C628.708 70.7326 630.283 70.5201 631.884 70.5201C634.959 70.5201 637.347 71.2453 639.048 72.6956C640.748 74.146 641.599 76.409 641.599 79.4847V91H636.122ZM629.971 91.3001C628.395 91.3001 627.045 91.0375 625.92 90.5124C624.794 89.9623 623.932 89.2246 623.332 88.2994C622.731 87.3741 622.431 86.3364 622.431 85.1861C622.431 83.9858 622.719 82.9356 623.294 82.0354C623.894 81.1351 624.832 80.435 626.107 79.9348C627.383 79.4097 629.045 79.1472 631.096 79.1472H636.46V82.5605H631.734C630.358 82.5605 629.408 82.7855 628.883 83.2356C628.383 83.6857 628.133 84.2484 628.133 84.9235C628.133 85.6737 628.42 86.2739 628.995 86.724C629.596 87.1491 630.408 87.3616 631.434 87.3616C632.409 87.3616 633.284 87.1366 634.059 86.6865C634.834 86.2114 635.397 85.5237 635.747 84.6235L636.647 87.3241C636.222 88.6244 635.447 89.6122 634.322 90.2873C633.196 90.9625 631.746 91.3001 629.971 91.3001ZM659.16 70.5201C660.76 70.5201 662.185 70.8452 663.436 71.4953C664.711 72.1205 665.711 73.0957 666.436 74.421C667.162 75.7213 667.524 77.3967 667.524 79.4472V91H661.673V80.3474C661.673 78.7221 661.31 77.5218 660.585 76.7466C659.885 75.9714 658.885 75.5838 657.584 75.5838C656.659 75.5838 655.821 75.7839 655.071 76.184C654.346 76.559 653.771 77.1467 653.346 77.9469C652.946 78.7471 652.746 79.7723 652.746 81.0226V91H646.894V70.8202H652.483V76.409L651.433 74.7211C652.158 73.3708 653.196 72.333 654.546 71.6079C655.896 70.8827 657.434 70.5201 659.16 70.5201ZM682.465 98.5768C680.564 98.5768 678.726 98.3393 676.951 97.8641C675.2 97.414 673.737 96.7264 672.562 95.8012L674.888 91.6001C675.738 92.3003 676.813 92.8504 678.113 93.2505C679.439 93.6756 680.739 93.8882 682.014 93.8882C684.09 93.8882 685.59 93.4256 686.515 92.5004C687.466 91.5751 687.941 90.1998 687.941 88.3744V85.3361L688.316 80.2724L688.241 75.1712V70.8202H693.792V87.6242C693.792 91.3751 692.817 94.1383 690.867 95.9137C688.916 97.6891 686.115 98.5768 682.465 98.5768ZM681.564 90.0248C679.689 90.0248 677.988 89.6247 676.463 88.8245C674.963 87.9993 673.75 86.8615 672.825 85.4112C671.925 83.9358 671.474 82.2229 671.474 80.2724C671.474 78.297 671.925 76.584 672.825 75.1337C673.75 73.6583 674.963 72.5206 676.463 71.7204C677.988 70.9202 679.689 70.5201 681.564 70.5201C683.265 70.5201 684.765 70.8702 686.065 71.5703C687.366 72.2455 688.378 73.3083 689.104 74.7586C689.829 76.184 690.191 78.0219 690.191 80.2724C690.191 82.498 689.829 84.3359 689.104 85.7863C688.378 87.2116 687.366 88.2743 686.065 88.9745C684.765 89.6747 683.265 90.0248 681.564 90.0248ZM682.727 85.2236C683.752 85.2236 684.665 85.0236 685.465 84.6235C686.265 84.1984 686.891 83.6107 687.341 82.8606C687.791 82.1104 688.016 81.2477 688.016 80.2724C688.016 79.2722 687.791 78.4095 687.341 77.6843C686.891 76.9341 686.265 76.359 685.465 75.9589C684.665 75.5338 683.752 75.3212 682.727 75.3212C681.702 75.3212 680.789 75.5338 679.989 75.9589C679.189 76.359 678.551 76.9341 678.076 77.6843C677.626 78.4095 677.401 79.2722 677.401 80.2724C677.401 81.2477 677.626 82.1104 678.076 82.8606C678.551 83.6107 679.189 84.1984 679.989 84.6235C680.789 85.0236 681.702 85.2236 682.727 85.2236ZM267.638 134V107.744H272.665L283.842 126.273H281.179L292.169 107.744H297.158L297.233 134H291.532L291.494 116.483H292.544L283.767 131.224H281.029L272.064 116.483H273.34V134H267.638ZM315.428 134V130.062L315.053 129.199V122.147C315.053 120.897 314.665 119.922 313.89 119.221C313.14 118.521 311.977 118.171 310.402 118.171C309.326 118.171 308.263 118.346 307.213 118.696C306.188 119.021 305.313 119.472 304.588 120.047L302.487 115.958C303.587 115.183 304.913 114.583 306.463 114.158C308.013 113.733 309.589 113.52 311.189 113.52C314.265 113.52 316.653 114.245 318.353 115.696C320.054 117.146 320.904 119.409 320.904 122.485V134H315.428ZM309.276 134.3C307.701 134.3 306.351 134.038 305.225 133.512C304.1 132.962 303.237 132.225 302.637 131.299C302.037 130.374 301.737 129.336 301.737 128.186C301.737 126.986 302.024 125.936 302.6 125.035C303.2 124.135 304.138 123.435 305.413 122.935C306.688 122.41 308.351 122.147 310.402 122.147H315.765V125.56H311.039C309.664 125.56 308.714 125.786 308.188 126.236C307.688 126.686 307.438 127.248 307.438 127.924C307.438 128.674 307.726 129.274 308.301 129.724C308.901 130.149 309.714 130.362 310.739 130.362C311.714 130.362 312.59 130.137 313.365 129.686C314.14 129.211 314.703 128.524 315.053 127.623L315.953 130.324C315.528 131.624 314.753 132.612 313.627 133.287C312.502 133.962 311.052 134.3 309.276 134.3ZM332.989 134.3C331.264 134.3 329.601 134.1 328 133.7C326.425 133.275 325.175 132.75 324.249 132.125L326.2 127.924C327.125 128.499 328.213 128.974 329.463 129.349C330.738 129.699 331.989 129.874 333.214 129.874C334.564 129.874 335.515 129.711 336.065 129.386C336.64 129.061 336.927 128.611 336.927 128.036C336.927 127.561 336.702 127.211 336.252 126.986C335.827 126.736 335.252 126.548 334.527 126.423C333.802 126.298 333.001 126.173 332.126 126.048C331.276 125.923 330.413 125.761 329.538 125.56C328.663 125.335 327.863 125.01 327.138 124.585C326.412 124.16 325.825 123.585 325.375 122.86C324.95 122.135 324.737 121.197 324.737 120.047C324.737 118.771 325.1 117.646 325.825 116.671C326.575 115.696 327.65 114.933 329.05 114.383C330.451 113.808 332.126 113.52 334.077 113.52C335.452 113.52 336.852 113.67 338.278 113.97C339.703 114.27 340.891 114.708 341.841 115.283L339.891 119.447C338.915 118.871 337.928 118.484 336.927 118.284C335.952 118.059 335.002 117.946 334.077 117.946C332.776 117.946 331.826 118.121 331.226 118.471C330.626 118.821 330.326 119.271 330.326 119.822C330.326 120.322 330.538 120.697 330.963 120.947C331.414 121.197 332.001 121.397 332.726 121.547C333.452 121.697 334.239 121.835 335.089 121.96C335.965 122.06 336.84 122.222 337.715 122.447C338.59 122.672 339.378 122.997 340.078 123.422C340.803 123.823 341.391 124.385 341.841 125.11C342.291 125.811 342.516 126.736 342.516 127.886C342.516 129.136 342.141 130.249 341.391 131.224C340.641 132.175 339.553 132.925 338.128 133.475C336.727 134.025 335.014 134.3 332.989 134.3ZM346.126 134V113.82H351.978V134H346.126ZM349.052 111.007C347.977 111.007 347.102 110.694 346.427 110.069C345.751 109.444 345.414 108.669 345.414 107.744C345.414 106.818 345.751 106.043 346.427 105.418C347.102 104.793 347.977 104.48 349.052 104.48C350.127 104.48 351.003 104.781 351.678 105.381C352.353 105.956 352.691 106.706 352.691 107.631C352.691 108.606 352.353 109.419 351.678 110.069C351.028 110.694 350.152 111.007 349.052 111.007ZM369.674 113.52C371.274 113.52 372.7 113.845 373.95 114.495C375.225 115.12 376.225 116.096 376.951 117.421C377.676 118.721 378.038 120.397 378.038 122.447V134H372.187V123.347C372.187 121.722 371.824 120.522 371.099 119.747C370.399 118.971 369.399 118.584 368.099 118.584C367.173 118.584 366.336 118.784 365.585 119.184C364.86 119.559 364.285 120.147 363.86 120.947C363.46 121.747 363.26 122.772 363.26 124.023V134H357.408V106.168H363.26V119.409L361.947 117.721C362.672 116.371 363.71 115.333 365.06 114.608C366.411 113.883 367.948 113.52 369.674 113.52ZM394.378 134V107.744H407.206C410.507 107.744 412.982 108.369 414.633 109.619C416.308 110.869 417.146 112.52 417.146 114.57C417.146 115.946 416.808 117.146 416.133 118.171C415.458 119.171 414.533 119.947 413.357 120.497C412.182 121.047 410.832 121.322 409.306 121.322L410.019 119.784C411.669 119.784 413.132 120.059 414.407 120.609C415.683 121.134 416.671 121.922 417.371 122.972C418.096 124.023 418.458 125.31 418.458 126.836C418.458 129.086 417.571 130.849 415.795 132.125C414.02 133.375 411.407 134 407.956 134H394.378ZM400.417 129.424H407.506C409.081 129.424 410.269 129.174 411.069 128.674C411.894 128.149 412.307 127.323 412.307 126.198C412.307 125.098 411.894 124.285 411.069 123.76C410.269 123.21 409.081 122.935 407.506 122.935H399.967V118.509H406.456C407.931 118.509 409.056 118.259 409.831 117.759C410.632 117.233 411.032 116.446 411.032 115.396C411.032 114.37 410.632 113.608 409.831 113.107C409.056 112.582 407.931 112.32 406.456 112.32H400.417V129.424ZM432.661 134.3C430.361 134.3 428.335 133.85 426.585 132.95C424.859 132.05 423.521 130.824 422.571 129.274C421.621 127.698 421.146 125.911 421.146 123.91C421.146 121.885 421.609 120.097 422.534 118.546C423.484 116.971 424.772 115.746 426.397 114.87C428.023 113.97 429.86 113.52 431.911 113.52C433.886 113.52 435.662 113.945 437.237 114.795C438.838 115.621 440.1 116.821 441.026 118.396C441.951 119.947 442.413 121.81 442.413 123.985C442.413 124.21 442.401 124.473 442.376 124.773C442.351 125.048 442.326 125.31 442.301 125.56H425.91V122.147H439.225L436.975 123.16C436.975 122.11 436.762 121.197 436.337 120.422C435.912 119.647 435.324 119.046 434.574 118.621C433.824 118.171 432.949 117.946 431.948 117.946C430.948 117.946 430.061 118.171 429.285 118.621C428.535 119.046 427.948 119.659 427.522 120.459C427.097 121.234 426.885 122.16 426.885 123.235V124.135C426.885 125.235 427.122 126.211 427.597 127.061C428.098 127.886 428.785 128.524 429.66 128.974C430.561 129.399 431.611 129.611 432.811 129.611C433.886 129.611 434.824 129.449 435.624 129.124C436.45 128.799 437.2 128.311 437.875 127.661L440.988 131.037C440.063 132.087 438.9 132.9 437.5 133.475C436.099 134.025 434.487 134.3 432.661 134.3ZM446.309 134V106.168H452.161V134H446.309ZM466.106 134.3C464.43 134.3 462.93 133.975 461.605 133.325C460.304 132.675 459.292 131.687 458.566 130.362C457.841 129.011 457.479 127.298 457.479 125.223V113.82H463.33V124.36C463.33 126.036 463.68 127.273 464.38 128.074C465.105 128.849 466.118 129.236 467.419 129.236C468.319 129.236 469.119 129.049 469.819 128.674C470.519 128.274 471.069 127.673 471.469 126.873C471.87 126.048 472.07 125.023 472.07 123.798V113.82H477.921V134H472.37V128.449L473.382 130.062C472.707 131.462 471.707 132.525 470.382 133.25C469.081 133.95 467.656 134.3 466.106 134.3ZM509.186 113.52C510.786 113.52 512.199 113.845 513.424 114.495C514.674 115.12 515.65 116.096 516.35 117.421C517.075 118.721 517.438 120.397 517.438 122.447V134H511.586V123.347C511.586 121.722 511.249 120.522 510.573 119.747C509.898 118.971 508.948 118.584 507.723 118.584C506.873 118.584 506.11 118.784 505.435 119.184C504.76 119.559 504.234 120.134 503.859 120.909C503.484 121.685 503.297 122.672 503.297 123.873V134H497.445V123.347C497.445 121.722 497.108 120.522 496.433 119.747C495.782 118.971 494.845 118.584 493.619 118.584C492.769 118.584 492.007 118.784 491.331 119.184C490.656 119.559 490.131 120.134 489.756 120.909C489.381 121.685 489.193 122.672 489.193 123.873V134H483.342V113.82H488.931V119.334L487.881 117.721C488.581 116.346 489.568 115.308 490.844 114.608C492.144 113.883 493.619 113.52 495.27 113.52C497.12 113.52 498.733 113.995 500.108 114.945C501.509 115.871 502.434 117.296 502.884 119.221L500.821 118.659C501.496 117.083 502.572 115.833 504.047 114.908C505.547 113.983 507.26 113.52 509.186 113.52ZM542.345 134.45C540.244 134.45 538.231 134.175 536.306 133.625C534.38 133.05 532.83 132.312 531.655 131.412L533.718 126.836C534.843 127.636 536.168 128.299 537.694 128.824C539.244 129.324 540.807 129.574 542.382 129.574C543.583 129.574 544.545 129.461 545.27 129.236C546.021 128.986 546.571 128.649 546.921 128.224C547.271 127.799 547.446 127.311 547.446 126.761C547.446 126.061 547.171 125.51 546.621 125.11C546.071 124.685 545.345 124.348 544.445 124.098C543.545 123.823 542.545 123.573 541.445 123.347C540.369 123.097 539.282 122.797 538.181 122.447C537.106 122.097 536.118 121.647 535.218 121.097C534.318 120.547 533.58 119.822 533.005 118.921C532.455 118.021 532.18 116.871 532.18 115.471C532.18 113.97 532.58 112.607 533.38 111.382C534.205 110.132 535.431 109.144 537.056 108.419C538.706 107.669 540.769 107.294 543.245 107.294C544.895 107.294 546.521 107.494 548.121 107.894C549.722 108.269 551.134 108.844 552.36 109.619L550.484 114.233C549.259 113.533 548.034 113.02 546.808 112.695C545.583 112.345 544.383 112.17 543.207 112.17C542.032 112.17 541.069 112.307 540.319 112.582C539.569 112.857 539.031 113.22 538.706 113.67C538.381 114.095 538.219 114.595 538.219 115.17C538.219 115.846 538.494 116.396 539.044 116.821C539.594 117.221 540.319 117.546 541.219 117.796C542.12 118.046 543.107 118.296 544.183 118.546C545.283 118.796 546.371 119.084 547.446 119.409C548.546 119.734 549.546 120.172 550.447 120.722C551.347 121.272 552.072 121.997 552.622 122.897C553.197 123.798 553.485 124.935 553.485 126.311C553.485 127.786 553.072 129.136 552.247 130.362C551.422 131.587 550.184 132.575 548.534 133.325C546.908 134.075 544.845 134.45 542.345 134.45ZM567.239 134.3C564.939 134.3 562.913 133.85 561.163 132.95C559.437 132.05 558.1 130.824 557.149 129.274C556.199 127.698 555.724 125.911 555.724 123.91C555.724 121.885 556.187 120.097 557.112 118.546C558.062 116.971 559.35 115.746 560.975 114.87C562.601 113.97 564.439 113.52 566.489 113.52C568.465 113.52 570.24 113.945 571.815 114.795C573.416 115.621 574.679 116.821 575.604 118.396C576.529 119.947 576.992 121.81 576.992 123.985C576.992 124.21 576.979 124.473 576.954 124.773C576.929 125.048 576.904 125.31 576.879 125.56H560.488V122.147H573.803L571.553 123.16C571.553 122.11 571.34 121.197 570.915 120.422C570.49 119.647 569.902 119.046 569.152 118.621C568.402 118.171 567.527 117.946 566.527 117.946C565.526 117.946 564.639 118.171 563.863 118.621C563.113 119.046 562.526 119.659 562.101 120.459C561.675 121.234 561.463 122.16 561.463 123.235V124.135C561.463 125.235 561.7 126.211 562.176 127.061C562.676 127.886 563.363 128.524 564.239 128.974C565.139 129.399 566.189 129.611 567.389 129.611C568.465 129.611 569.402 129.449 570.202 129.124C571.028 128.799 571.778 128.311 572.453 127.661L575.566 131.037C574.641 132.087 573.478 132.9 572.078 133.475C570.678 134.025 569.065 134.3 567.239 134.3ZM606.731 113.52C608.331 113.52 609.744 113.845 610.969 114.495C612.22 115.12 613.195 116.096 613.895 117.421C614.62 118.721 614.983 120.397 614.983 122.447V134H609.132V123.347C609.132 121.722 608.794 120.522 608.119 119.747C607.444 118.971 606.493 118.584 605.268 118.584C604.418 118.584 603.655 118.784 602.98 119.184C602.305 119.559 601.78 120.134 601.405 120.909C601.03 121.685 600.842 122.672 600.842 123.873V134H594.991V123.347C594.991 121.722 594.653 120.522 593.978 119.747C593.328 118.971 592.39 118.584 591.165 118.584C590.315 118.584 589.552 118.784 588.877 119.184C588.202 119.559 587.676 120.134 587.301 120.909C586.926 121.685 586.739 122.672 586.739 123.873V134H580.887V113.82H586.476V119.334L585.426 117.721C586.126 116.346 587.114 115.308 588.389 114.608C589.689 113.883 591.165 113.52 592.815 113.52C594.666 113.52 596.278 113.995 597.654 114.945C599.054 115.871 599.979 117.296 600.429 119.221L598.366 118.659C599.042 117.083 600.117 115.833 601.592 114.908C603.093 113.983 604.806 113.52 606.731 113.52ZM632.156 134.3C630.455 134.3 628.967 133.925 627.692 133.175C626.417 132.425 625.416 131.287 624.691 129.761C623.991 128.211 623.641 126.261 623.641 123.91C623.641 121.535 623.979 119.584 624.654 118.059C625.329 116.533 626.304 115.396 627.58 114.645C628.855 113.895 630.38 113.52 632.156 113.52C634.056 113.52 635.756 113.958 637.257 114.833C638.782 115.683 639.982 116.883 640.858 118.434C641.758 119.984 642.208 121.81 642.208 123.91C642.208 126.036 641.758 127.874 640.858 129.424C639.982 130.974 638.782 132.175 637.257 133.025C635.756 133.875 634.056 134.3 632.156 134.3ZM620.228 141.277V113.82H625.817V117.946L625.704 123.948L626.079 129.912V141.277H620.228ZM631.143 129.499C632.118 129.499 632.981 129.274 633.731 128.824C634.506 128.374 635.119 127.736 635.569 126.911C636.044 126.061 636.282 125.06 636.282 123.91C636.282 122.735 636.044 121.735 635.569 120.909C635.119 120.084 634.506 119.447 633.731 118.996C632.981 118.546 632.118 118.321 631.143 118.321C630.168 118.321 629.292 118.546 628.517 118.996C627.742 119.447 627.129 120.084 626.679 120.909C626.229 121.735 626.004 122.735 626.004 123.91C626.004 125.06 626.229 126.061 626.679 126.911C627.129 127.736 627.742 128.374 628.517 128.824C629.292 129.274 630.168 129.499 631.143 129.499ZM658.173 134V130.062L657.798 129.199V122.147C657.798 120.897 657.411 119.922 656.636 119.221C655.885 118.521 654.723 118.171 653.147 118.171C652.072 118.171 651.009 118.346 649.959 118.696C648.934 119.021 648.058 119.472 647.333 120.047L645.233 115.958C646.333 115.183 647.658 114.583 649.209 114.158C650.759 113.733 652.334 113.52 653.935 113.52C657.011 113.52 659.399 114.245 661.099 115.696C662.799 117.146 663.65 119.409 663.65 122.485V134H658.173ZM652.022 134.3C650.447 134.3 649.096 134.038 647.971 133.512C646.846 132.962 645.983 132.225 645.383 131.299C644.783 130.374 644.483 129.336 644.483 128.186C644.483 126.986 644.77 125.936 645.345 125.035C645.945 124.135 646.883 123.435 648.158 122.935C649.434 122.41 651.097 122.147 653.147 122.147H658.511V125.56H653.785C652.409 125.56 651.459 125.786 650.934 126.236C650.434 126.686 650.184 127.248 650.184 127.924C650.184 128.674 650.472 129.274 651.047 129.724C651.647 130.149 652.46 130.362 653.485 130.362C654.46 130.362 655.335 130.137 656.11 129.686C656.886 129.211 657.448 128.524 657.798 127.623L658.698 130.324C658.273 131.624 657.498 132.612 656.373 133.287C655.248 133.962 653.797 134.3 652.022 134.3ZM677.197 134.3C674.822 134.3 672.971 133.7 671.646 132.5C670.321 131.274 669.658 129.461 669.658 127.061V109.357H675.51V126.986C675.51 127.836 675.735 128.499 676.185 128.974C676.635 129.424 677.247 129.649 678.023 129.649C678.948 129.649 679.736 129.399 680.386 128.899L681.961 133.025C681.361 133.45 680.636 133.775 679.786 134C678.96 134.2 678.098 134.3 677.197 134.3ZM666.545 118.771V114.27H680.536V118.771H666.545ZM707.946 134.45C704.22 134.45 701.307 133.412 699.207 131.337C697.106 129.261 696.056 126.298 696.056 122.447V107.744H702.132V122.222C702.132 124.723 702.645 126.523 703.67 127.623C704.696 128.724 706.133 129.274 707.984 129.274C709.834 129.274 711.272 128.724 712.297 127.623C713.323 126.523 713.835 124.723 713.835 122.222V107.744H719.837V122.447C719.837 126.298 718.786 129.261 716.686 131.337C714.585 133.412 711.672 134.45 707.946 134.45ZM737.694 113.52C739.295 113.52 740.72 113.845 741.97 114.495C743.246 115.12 744.246 116.096 744.971 117.421C745.696 118.721 746.059 120.397 746.059 122.447V134H740.207V123.347C740.207 121.722 739.845 120.522 739.12 119.747C738.419 118.971 737.419 118.584 736.119 118.584C735.194 118.584 734.356 118.784 733.606 119.184C732.881 119.559 732.305 120.147 731.88 120.947C731.48 121.747 731.28 122.772 731.28 124.023V134H725.429V113.82H731.018V119.409L729.967 117.721C730.692 116.371 731.73 115.333 733.081 114.608C734.431 113.883 735.969 113.52 737.694 113.52ZM759.615 134.3C757.239 134.3 755.389 133.7 754.063 132.5C752.738 131.274 752.075 129.461 752.075 127.061V109.357H757.927V126.986C757.927 127.836 758.152 128.499 758.602 128.974C759.052 129.424 759.665 129.649 760.44 129.649C761.365 129.649 762.153 129.399 762.803 128.899L764.378 133.025C763.778 133.45 763.053 133.775 762.203 134C761.378 134.2 760.515 134.3 759.615 134.3ZM748.962 118.771V114.27H762.953V118.771H748.962ZM776.178 134.3C774.502 134.3 773.002 133.975 771.676 133.325C770.376 132.675 769.363 131.687 768.638 130.362C767.913 129.011 767.55 127.298 767.55 125.223V113.82H773.402V124.36C773.402 126.036 773.752 127.273 774.452 128.074C775.177 128.849 776.19 129.236 777.49 129.236C778.391 129.236 779.191 129.049 779.891 128.674C780.591 128.274 781.141 127.673 781.541 126.873C781.941 126.048 782.141 125.023 782.141 123.798V113.82H787.993V134H782.442V128.449L783.454 130.062C782.779 131.462 781.779 132.525 780.454 133.25C779.153 133.95 777.728 134.3 776.178 134.3ZM798.252 129.874L798.402 122.747L807.817 113.82H814.794L805.754 123.01L802.716 125.485L798.252 129.874ZM793.414 134V106.168H799.265V134H793.414ZM808.455 134L801.628 125.523L805.304 120.984L815.544 134H808.455ZM284.158 177V150.744H289.185L300.362 169.273H297.699L308.689 150.744H313.678L313.753 177H308.052L308.014 159.483H309.064L300.287 174.224H297.549L288.584 159.483H289.86V177H284.158ZM329.585 177.3C327.284 177.3 325.259 176.85 323.508 175.95C321.783 175.05 320.445 173.824 319.495 172.274C318.545 170.698 318.069 168.911 318.069 166.91C318.069 164.885 318.532 163.097 319.457 161.546C320.408 159.971 321.695 158.746 323.321 157.87C324.946 156.97 326.784 156.52 328.835 156.52C330.81 156.52 332.585 156.945 334.161 157.795C335.761 158.621 337.024 159.821 337.949 161.396C338.874 162.947 339.337 164.81 339.337 166.985C339.337 167.21 339.325 167.473 339.3 167.773C339.275 168.048 339.25 168.31 339.225 168.56H322.833V165.147H336.149L333.898 166.16C333.898 165.11 333.686 164.197 333.261 163.422C332.835 162.647 332.248 162.046 331.498 161.621C330.747 161.171 329.872 160.946 328.872 160.946C327.872 160.946 326.984 161.171 326.209 161.621C325.459 162.046 324.871 162.659 324.446 163.459C324.021 164.234 323.808 165.16 323.808 166.235V167.135C323.808 168.235 324.046 169.211 324.521 170.061C325.021 170.886 325.709 171.524 326.584 171.974C327.484 172.399 328.534 172.611 329.735 172.611C330.81 172.611 331.748 172.449 332.548 172.124C333.373 171.799 334.123 171.311 334.798 170.661L337.912 174.037C336.986 175.087 335.824 175.9 334.423 176.475C333.023 177.025 331.41 177.3 329.585 177.3ZM355.498 156.52C357.099 156.52 358.524 156.845 359.774 157.495C361.049 158.12 362.05 159.096 362.775 160.421C363.5 161.721 363.863 163.397 363.863 165.447V177H358.011V166.347C358.011 164.722 357.649 163.522 356.923 162.747C356.223 161.971 355.223 161.584 353.923 161.584C352.998 161.584 352.16 161.784 351.41 162.184C350.684 162.559 350.109 163.147 349.684 163.947C349.284 164.747 349.084 165.772 349.084 167.023V177H343.233V156.82H348.822V162.409L347.771 160.721C348.496 159.371 349.534 158.333 350.885 157.608C352.235 156.883 353.773 156.52 355.498 156.52ZM378.803 184.577C376.902 184.577 375.065 184.339 373.289 183.864C371.539 183.414 370.076 182.726 368.901 181.801L371.226 177.6C372.076 178.3 373.152 178.85 374.452 179.251C375.777 179.676 377.078 179.888 378.353 179.888C380.428 179.888 381.929 179.426 382.854 178.5C383.804 177.575 384.279 176.2 384.279 174.374V171.336L384.654 166.272L384.579 161.171V156.82H390.131V173.624C390.131 177.375 389.155 180.138 387.205 181.914C385.254 183.689 382.454 184.577 378.803 184.577ZM377.903 176.025C376.027 176.025 374.327 175.625 372.802 174.824C371.301 173.999 370.088 172.862 369.163 171.411C368.263 169.936 367.813 168.223 367.813 166.272C367.813 164.297 368.263 162.584 369.163 161.134C370.088 159.658 371.301 158.521 372.802 157.72C374.327 156.92 376.027 156.52 377.903 156.52C379.603 156.52 381.104 156.87 382.404 157.57C383.704 158.246 384.717 159.308 385.442 160.759C386.167 162.184 386.53 164.022 386.53 166.272C386.53 168.498 386.167 170.336 385.442 171.786C384.717 173.212 383.704 174.274 382.404 174.975C381.104 175.675 379.603 176.025 377.903 176.025ZM379.066 171.224C380.091 171.224 381.003 171.024 381.804 170.623C382.604 170.198 383.229 169.611 383.679 168.861C384.129 168.11 384.354 167.248 384.354 166.272C384.354 165.272 384.129 164.409 383.679 163.684C383.229 162.934 382.604 162.359 381.804 161.959C381.003 161.534 380.091 161.321 379.066 161.321C378.04 161.321 377.128 161.534 376.327 161.959C375.527 162.359 374.89 162.934 374.414 163.684C373.964 164.409 373.739 165.272 373.739 166.272C373.739 167.248 373.964 168.11 374.414 168.861C374.89 169.611 375.527 170.198 376.327 170.623C377.128 171.024 378.04 171.224 379.066 171.224ZM405.592 177.3C403.291 177.3 401.266 176.85 399.515 175.95C397.79 175.05 396.452 173.824 395.502 172.274C394.552 170.698 394.076 168.911 394.076 166.91C394.076 164.885 394.539 163.097 395.464 161.546C396.414 159.971 397.702 158.746 399.328 157.87C400.953 156.97 402.791 156.52 404.842 156.52C406.817 156.52 408.592 156.945 410.168 157.795C411.768 158.621 413.031 159.821 413.956 161.396C414.881 162.947 415.344 164.81 415.344 166.985C415.344 167.21 415.332 167.473 415.307 167.773C415.282 168.048 415.257 168.31 415.231 168.56H398.84V165.147H412.156L409.905 166.16C409.905 165.11 409.693 164.197 409.268 163.422C408.842 162.647 408.255 162.046 407.505 161.621C406.754 161.171 405.879 160.946 404.879 160.946C403.879 160.946 402.991 161.171 402.216 161.621C401.466 162.046 400.878 162.659 400.453 163.459C400.028 164.234 399.815 165.16 399.815 166.235V167.135C399.815 168.235 400.053 169.211 400.528 170.061C401.028 170.886 401.716 171.524 402.591 171.974C403.491 172.399 404.541 172.611 405.742 172.611C406.817 172.611 407.755 172.449 408.555 172.124C409.38 171.799 410.13 171.311 410.805 170.661L413.919 174.037C412.993 175.087 411.831 175.9 410.43 176.475C409.03 177.025 407.417 177.3 405.592 177.3ZM427.904 177.3C426.004 177.3 424.291 176.875 422.766 176.025C421.24 175.15 420.027 173.937 419.127 172.386C418.252 170.836 417.814 169.011 417.814 166.91C417.814 164.785 418.252 162.947 419.127 161.396C420.027 159.846 421.24 158.646 422.766 157.795C424.291 156.945 426.004 156.52 427.904 156.52C429.605 156.52 431.093 156.895 432.368 157.645C433.643 158.396 434.631 159.533 435.331 161.059C436.031 162.584 436.381 164.535 436.381 166.91C436.381 169.261 436.044 171.211 435.369 172.761C434.693 174.287 433.718 175.425 432.443 176.175C431.193 176.925 429.68 177.3 427.904 177.3ZM428.917 172.499C429.867 172.499 430.73 172.274 431.505 171.824C432.28 171.374 432.893 170.736 433.343 169.911C433.818 169.061 434.056 168.06 434.056 166.91C434.056 165.735 433.818 164.735 433.343 163.909C432.893 163.084 432.28 162.447 431.505 161.996C430.73 161.546 429.867 161.321 428.917 161.321C427.942 161.321 427.067 161.546 426.291 161.996C425.516 162.447 424.891 163.084 424.416 163.909C423.966 164.735 423.741 165.735 423.741 166.91C423.741 168.06 423.966 169.061 424.416 169.911C424.891 170.736 425.516 171.374 426.291 171.824C427.067 172.274 427.942 172.499 428.917 172.499ZM434.206 177V172.874L434.318 166.873L433.943 160.909V149.168H439.795V177H434.206ZM445.21 177V156.82H451.062V177H445.21ZM448.136 154.007C447.061 154.007 446.185 153.694 445.51 153.069C444.835 152.444 444.498 151.669 444.498 150.744C444.498 149.818 444.835 149.043 445.51 148.418C446.185 147.793 447.061 147.48 448.136 147.48C449.211 147.48 450.086 147.781 450.762 148.381C451.437 148.956 451.774 149.706 451.774 150.631C451.774 151.606 451.437 152.419 450.762 153.069C450.111 153.694 449.236 154.007 448.136 154.007ZM464.744 177.3C462.369 177.3 460.518 176.7 459.193 175.5C457.868 174.274 457.205 172.461 457.205 170.061V152.357H463.056V169.986C463.056 170.836 463.281 171.499 463.731 171.974C464.182 172.424 464.794 172.649 465.569 172.649C466.495 172.649 467.282 172.399 467.932 171.899L469.508 176.025C468.908 176.45 468.183 176.775 467.332 177C466.507 177.2 465.644 177.3 464.744 177.3ZM454.092 161.771V157.27H468.083V161.771H454.092ZM483.828 177V150.744H489.904V177H483.828ZM502.512 177.3C500.787 177.3 499.124 177.1 497.523 176.7C495.948 176.275 494.698 175.75 493.772 175.125L495.723 170.924C496.648 171.499 497.736 171.974 498.986 172.349C500.261 172.699 501.512 172.874 502.737 172.874C504.087 172.874 505.038 172.711 505.588 172.386C506.163 172.061 506.45 171.611 506.45 171.036C506.45 170.561 506.225 170.211 505.775 169.986C505.35 169.736 504.775 169.548 504.05 169.423C503.325 169.298 502.524 169.173 501.649 169.048C500.799 168.923 499.936 168.761 499.061 168.56C498.186 168.335 497.386 168.01 496.661 167.585C495.935 167.16 495.348 166.585 494.898 165.86C494.473 165.135 494.26 164.197 494.26 163.047C494.26 161.771 494.623 160.646 495.348 159.671C496.098 158.696 497.173 157.933 498.574 157.383C499.974 156.808 501.649 156.52 503.6 156.52C504.975 156.52 506.375 156.67 507.801 156.97C509.226 157.27 510.414 157.708 511.364 158.283L509.414 162.447C508.438 161.871 507.451 161.484 506.45 161.284C505.475 161.059 504.525 160.946 503.6 160.946C502.299 160.946 501.349 161.121 500.749 161.471C500.149 161.821 499.849 162.271 499.849 162.822C499.849 163.322 500.061 163.697 500.486 163.947C500.937 164.197 501.524 164.397 502.249 164.547C502.975 164.697 503.762 164.835 504.612 164.96C505.488 165.06 506.363 165.222 507.238 165.447C508.113 165.672 508.901 165.997 509.601 166.422C510.326 166.823 510.914 167.385 511.364 168.11C511.814 168.811 512.039 169.736 512.039 170.886C512.039 172.136 511.664 173.249 510.914 174.224C510.164 175.175 509.076 175.925 507.651 176.475C506.25 177.025 504.537 177.3 502.512 177.3ZM515.649 177V156.82H521.501V177H515.649ZM518.575 154.007C517.5 154.007 516.625 153.694 515.95 153.069C515.274 152.444 514.937 151.669 514.937 150.744C514.937 149.818 515.274 149.043 515.95 148.418C516.625 147.793 517.5 147.48 518.575 147.48C519.65 147.48 520.526 147.781 521.201 148.381C521.876 148.956 522.214 149.706 522.214 150.631C522.214 151.606 521.876 152.419 521.201 153.069C520.551 153.694 519.675 154.007 518.575 154.007ZM543.406 177V155.695H535.004V150.744H557.884V155.695H549.482V177H543.406ZM568.704 177.3C566.404 177.3 564.378 176.85 562.628 175.95C560.903 175.05 559.565 173.824 558.615 172.274C557.664 170.698 557.189 168.911 557.189 166.91C557.189 164.885 557.652 163.097 558.577 161.546C559.527 159.971 560.815 158.746 562.44 157.87C564.066 156.97 565.904 156.52 567.954 156.52C569.93 156.52 571.705 156.945 573.281 157.795C574.881 158.621 576.144 159.821 577.069 161.396C577.994 162.947 578.457 164.81 578.457 166.985C578.457 167.21 578.444 167.473 578.419 167.773C578.394 168.048 578.369 168.31 578.344 168.56H561.953V165.147H575.269L573.018 166.16C573.018 165.11 572.805 164.197 572.38 163.422C571.955 162.647 571.368 162.046 570.617 161.621C569.867 161.171 568.992 160.946 567.992 160.946C566.992 160.946 566.104 161.171 565.329 161.621C564.579 162.046 563.991 162.659 563.566 163.459C563.141 164.234 562.928 165.16 562.928 166.235V167.135C562.928 168.235 563.166 169.211 563.641 170.061C564.141 170.886 564.829 171.524 565.704 171.974C566.604 172.399 567.654 172.611 568.855 172.611C569.93 172.611 570.868 172.449 571.668 172.124C572.493 171.799 573.243 171.311 573.918 170.661L577.031 174.037C576.106 175.087 574.943 175.9 573.543 176.475C572.143 177.025 570.53 177.3 568.704 177.3ZM608.196 156.52C609.797 156.52 611.209 156.845 612.435 157.495C613.685 158.12 614.66 159.096 615.36 160.421C616.086 161.721 616.448 163.397 616.448 165.447V177H610.597V166.347C610.597 164.722 610.259 163.522 609.584 162.747C608.909 161.971 607.959 161.584 606.733 161.584C605.883 161.584 605.12 161.784 604.445 162.184C603.77 162.559 603.245 163.134 602.87 163.909C602.495 164.685 602.307 165.672 602.307 166.873V177H596.456V166.347C596.456 164.722 596.118 163.522 595.443 162.747C594.793 161.971 593.855 161.584 592.63 161.584C591.78 161.584 591.017 161.784 590.342 162.184C589.667 162.559 589.142 163.134 588.767 163.909C588.391 164.685 588.204 165.672 588.204 166.873V177H582.352V156.82H587.941V162.334L586.891 160.721C587.591 159.346 588.579 158.308 589.854 157.608C591.155 156.883 592.63 156.52 594.28 156.52C596.131 156.52 597.744 156.995 599.119 157.945C600.519 158.871 601.445 160.296 601.895 162.221L599.832 161.659C600.507 160.083 601.582 158.833 603.057 157.908C604.558 156.983 606.271 156.52 608.196 156.52ZM633.621 177.3C631.92 177.3 630.433 176.925 629.157 176.175C627.882 175.425 626.882 174.287 626.157 172.761C625.456 171.211 625.106 169.261 625.106 166.91C625.106 164.535 625.444 162.584 626.119 161.059C626.794 159.533 627.769 158.396 629.045 157.645C630.32 156.895 631.845 156.52 633.621 156.52C635.521 156.52 637.222 156.958 638.722 157.833C640.247 158.683 641.448 159.883 642.323 161.434C643.223 162.984 643.673 164.81 643.673 166.91C643.673 169.036 643.223 170.874 642.323 172.424C641.448 173.974 640.247 175.175 638.722 176.025C637.222 176.875 635.521 177.3 633.621 177.3ZM621.693 184.277V156.82H627.282V160.946L627.169 166.948L627.544 172.912V184.277H621.693ZM632.608 172.499C633.583 172.499 634.446 172.274 635.196 171.824C635.971 171.374 636.584 170.736 637.034 169.911C637.509 169.061 637.747 168.06 637.747 166.91C637.747 165.735 637.509 164.735 637.034 163.909C636.584 163.084 635.971 162.447 635.196 161.996C634.446 161.546 633.583 161.321 632.608 161.321C631.633 161.321 630.758 161.546 629.982 161.996C629.207 162.447 628.595 163.084 628.145 163.909C627.694 164.735 627.469 165.735 627.469 166.91C627.469 168.06 627.694 169.061 628.145 169.911C628.595 170.736 629.207 171.374 629.982 171.824C630.758 172.274 631.633 172.499 632.608 172.499ZM647.59 177V149.168H653.442V177H647.59ZM671.25 177V173.062L670.875 172.199V165.147C670.875 163.897 670.488 162.922 669.712 162.221C668.962 161.521 667.799 161.171 666.224 161.171C665.149 161.171 664.086 161.346 663.036 161.696C662.011 162.021 661.135 162.472 660.41 163.047L658.31 158.958C659.41 158.183 660.735 157.583 662.286 157.158C663.836 156.733 665.411 156.52 667.012 156.52C670.087 156.52 672.476 157.245 674.176 158.696C675.876 160.146 676.727 162.409 676.727 165.485V177H671.25ZM665.099 177.3C663.523 177.3 662.173 177.038 661.048 176.512C659.923 175.962 659.06 175.225 658.46 174.299C657.86 173.374 657.559 172.336 657.559 171.186C657.559 169.986 657.847 168.936 658.422 168.035C659.022 167.135 659.96 166.435 661.235 165.935C662.511 165.41 664.174 165.147 666.224 165.147H671.588V168.56H666.862C665.486 168.56 664.536 168.786 664.011 169.236C663.511 169.686 663.261 170.248 663.261 170.924C663.261 171.674 663.548 172.274 664.124 172.724C664.724 173.149 665.536 173.362 666.562 173.362C667.537 173.362 668.412 173.137 669.187 172.686C669.962 172.211 670.525 171.524 670.875 170.623L671.775 173.324C671.35 174.624 670.575 175.612 669.45 176.287C668.325 176.962 666.874 177.3 665.099 177.3ZM690.274 177.3C687.899 177.3 686.048 176.7 684.723 175.5C683.398 174.274 682.735 172.461 682.735 170.061V152.357H688.586V169.986C688.586 170.836 688.811 171.499 689.262 171.974C689.712 172.424 690.324 172.649 691.1 172.649C692.025 172.649 692.812 172.399 693.463 171.899L695.038 176.025C694.438 176.45 693.713 176.775 692.862 177C692.037 177.2 691.175 177.3 690.274 177.3ZM679.622 161.771V157.27H693.613V161.771H679.622ZM707.715 177.3C705.414 177.3 703.389 176.85 701.638 175.95C699.913 175.05 698.575 173.824 697.625 172.274C696.675 170.698 696.2 168.911 696.2 166.91C696.2 164.885 696.662 163.097 697.587 161.546C698.538 159.971 699.825 158.746 701.451 157.87C703.076 156.97 704.914 156.52 706.965 156.52C708.94 156.52 710.716 156.945 712.291 157.795C713.891 158.621 715.154 159.821 716.079 161.396C717.005 162.947 717.467 164.81 717.467 166.985C717.467 167.21 717.455 167.473 717.43 167.773C717.405 168.048 717.38 168.31 717.355 168.56H700.963V165.147H714.279L712.028 166.16C712.028 165.11 711.816 164.197 711.391 163.422C710.966 162.647 710.378 162.046 709.628 161.621C708.878 161.171 708.002 160.946 707.002 160.946C706.002 160.946 705.114 161.171 704.339 161.621C703.589 162.046 703.001 162.659 702.576 163.459C702.151 164.234 701.938 165.16 701.938 166.235V167.135C701.938 168.235 702.176 169.211 702.651 170.061C703.151 170.886 703.839 171.524 704.714 171.974C705.614 172.399 706.665 172.611 707.865 172.611C708.94 172.611 709.878 172.449 710.678 172.124C711.503 171.799 712.253 171.311 712.929 170.661L716.042 174.037C715.117 175.087 713.954 175.9 712.554 176.475C711.153 177.025 709.54 177.3 707.715 177.3ZM733.628 156.52C735.229 156.52 736.654 156.845 737.904 157.495C739.18 158.12 740.18 159.096 740.905 160.421C741.63 161.721 741.993 163.397 741.993 165.447V177H736.141V166.347C736.141 164.722 735.779 163.522 735.054 162.747C734.353 161.971 733.353 161.584 732.053 161.584C731.128 161.584 730.29 161.784 729.54 162.184C728.815 162.559 728.239 163.147 727.814 163.947C727.414 164.747 727.214 165.772 727.214 167.023V177H721.363V156.82H726.952V162.409L725.901 160.721C726.627 159.371 727.664 158.333 729.015 157.608C730.365 156.883 731.903 156.52 733.628 156.52ZM749.481 184.577C748.431 184.577 747.393 184.414 746.368 184.089C745.343 183.764 744.505 183.314 743.855 182.739L745.993 178.575C746.443 178.975 746.955 179.288 747.531 179.513C748.131 179.738 748.718 179.851 749.294 179.851C750.119 179.851 750.769 179.651 751.244 179.251C751.744 178.875 752.194 178.238 752.594 177.338L753.645 174.862L754.095 174.224L761.334 156.82H766.96L757.846 178.238C757.195 179.863 756.445 181.138 755.595 182.064C754.77 182.989 753.845 183.639 752.819 184.014C751.819 184.389 750.706 184.577 749.481 184.577ZM752.932 177.788L743.93 156.82H749.969L756.945 173.699L752.932 177.788ZM781.067 177V173.062L780.691 172.199V165.147C780.691 163.897 780.304 162.922 779.529 162.221C778.779 161.521 777.616 161.171 776.04 161.171C774.965 161.171 773.902 161.346 772.852 161.696C771.827 162.021 770.952 162.472 770.226 163.047L768.126 158.958C769.226 158.183 770.552 157.583 772.102 157.158C773.652 156.733 775.228 156.52 776.828 156.52C779.904 156.52 782.292 157.245 783.992 158.696C785.693 160.146 786.543 162.409 786.543 165.485V177H781.067ZM774.915 177.3C773.34 177.3 771.989 177.038 770.864 176.512C769.739 175.962 768.876 175.225 768.276 174.299C767.676 173.374 767.376 172.336 767.376 171.186C767.376 169.986 767.663 168.936 768.239 168.035C768.839 167.135 769.776 166.435 771.052 165.935C772.327 165.41 773.99 165.147 776.04 165.147H781.404V168.56H776.678C775.303 168.56 774.352 168.786 773.827 169.236C773.327 169.686 773.077 170.248 773.077 170.924C773.077 171.674 773.365 172.274 773.94 172.724C774.54 173.149 775.353 173.362 776.378 173.362C777.353 173.362 778.228 173.137 779.004 172.686C779.779 172.211 780.341 171.524 780.691 170.623L781.592 173.324C781.167 174.624 780.391 175.612 779.266 176.287C778.141 176.962 776.691 177.3 774.915 177.3ZM790.826 182.776L793.302 173.774L794.127 177.15C793.051 177.15 792.164 176.837 791.464 176.212C790.788 175.587 790.451 174.724 790.451 173.624C790.451 172.524 790.801 171.649 791.501 170.999C792.201 170.348 793.064 170.023 794.089 170.023C795.139 170.023 796.002 170.361 796.677 171.036C797.353 171.686 797.69 172.549 797.69 173.624C797.69 173.949 797.665 174.274 797.615 174.599C797.565 174.899 797.465 175.275 797.315 175.725C797.19 176.15 796.977 176.7 796.677 177.375L794.539 182.776H790.826Z" fill="white"/>
<path d="M307.418 269.999L307.08 262.984L319.646 249.744H326.397L315.069 261.934L311.694 265.535L307.418 269.999ZM301.979 276V249.744H308.018V276H301.979ZM319.946 276L310.606 264.56L314.582 260.246L327.035 276H319.946ZM341.27 276V272.062L340.895 271.199V264.147C340.895 262.897 340.507 261.922 339.732 261.221C338.982 260.521 337.819 260.171 336.244 260.171C335.169 260.171 334.106 260.346 333.056 260.696C332.03 261.021 331.155 261.472 330.43 262.047L328.329 257.958C329.43 257.183 330.755 256.583 332.305 256.158C333.856 255.733 335.431 255.52 337.032 255.52C340.107 255.52 342.495 256.245 344.196 257.696C345.896 259.146 346.746 261.409 346.746 264.485V276H341.27ZM335.119 276.3C333.543 276.3 332.193 276.038 331.068 275.512C329.942 274.962 329.08 274.225 328.48 273.299C327.879 272.374 327.579 271.336 327.579 270.186C327.579 268.986 327.867 267.936 328.442 267.035C329.042 266.135 329.98 265.435 331.255 264.935C332.53 264.41 334.193 264.147 336.244 264.147H341.608V267.56H336.882C335.506 267.56 334.556 267.786 334.031 268.236C333.531 268.686 333.281 269.248 333.281 269.924C333.281 270.674 333.568 271.274 334.143 271.724C334.744 272.149 335.556 272.362 336.581 272.362C337.557 272.362 338.432 272.137 339.207 271.686C339.982 271.211 340.545 270.524 340.895 269.623L341.795 272.324C341.37 273.624 340.595 274.612 339.47 275.287C338.344 275.962 336.894 276.3 335.119 276.3ZM377.886 255.52C379.486 255.52 380.899 255.845 382.124 256.495C383.375 257.12 384.35 258.096 385.05 259.421C385.775 260.721 386.138 262.397 386.138 264.447V276H380.286V265.347C380.286 263.722 379.949 262.522 379.274 261.747C378.599 260.971 377.648 260.584 376.423 260.584C375.573 260.584 374.81 260.784 374.135 261.184C373.46 261.559 372.935 262.134 372.56 262.909C372.185 263.685 371.997 264.672 371.997 265.873V276H366.146V265.347C366.146 263.722 365.808 262.522 365.133 261.747C364.483 260.971 363.545 260.584 362.32 260.584C361.469 260.584 360.707 260.784 360.032 261.184C359.356 261.559 358.831 262.134 358.456 262.909C358.081 263.685 357.894 264.672 357.894 265.873V276H352.042V255.82H357.631V261.334L356.581 259.721C357.281 258.346 358.269 257.308 359.544 256.608C360.844 255.883 362.32 255.52 363.97 255.52C365.82 255.52 367.433 255.995 368.809 256.945C370.209 257.871 371.134 259.296 371.584 261.221L369.521 260.659C370.197 259.083 371.272 257.833 372.747 256.908C374.248 255.983 375.96 255.52 377.886 255.52ZM391.383 276V255.82H397.234V276H391.383ZM394.308 253.007C393.233 253.007 392.358 252.694 391.683 252.069C391.008 251.444 390.67 250.669 390.67 249.744C390.67 248.818 391.008 248.043 391.683 247.418C392.358 246.793 393.233 246.48 394.308 246.48C395.384 246.48 396.259 246.781 396.934 247.381C397.609 247.956 397.947 248.706 397.947 249.631C397.947 250.606 397.609 251.419 396.934 252.069C396.284 252.694 395.409 253.007 394.308 253.007ZM418.539 276.45C416.763 276.45 415.125 276.125 413.625 275.475C412.15 274.8 410.937 273.849 409.987 272.624L413.362 268.573C414.088 269.523 414.85 270.249 415.65 270.749C416.451 271.224 417.313 271.461 418.239 271.461C420.714 271.461 421.952 270.011 421.952 267.11V254.62H412.725V249.744H427.991V266.773C427.991 270.024 427.191 272.449 425.59 274.05C423.99 275.65 421.639 276.45 418.539 276.45ZM442.095 276.3C440.419 276.3 438.919 275.975 437.594 275.325C436.293 274.675 435.281 273.687 434.556 272.362C433.83 271.011 433.468 269.298 433.468 267.223V255.82H439.319V266.36C439.319 268.036 439.669 269.273 440.369 270.074C441.095 270.849 442.107 271.236 443.408 271.236C444.308 271.236 445.108 271.049 445.808 270.674C446.508 270.274 447.059 269.673 447.459 268.873C447.859 268.048 448.059 267.023 448.059 265.798V255.82H453.91V276H448.359V270.449L449.372 272.062C448.696 273.462 447.696 274.525 446.371 275.25C445.071 275.95 443.645 276.3 442.095 276.3ZM468.821 283.577C466.92 283.577 465.082 283.339 463.307 282.864C461.557 282.414 460.094 281.726 458.918 280.801L461.244 276.6C462.094 277.3 463.169 277.85 464.47 278.251C465.795 278.676 467.095 278.888 468.371 278.888C470.446 278.888 471.947 278.426 472.872 277.5C473.822 276.575 474.297 275.2 474.297 273.374V270.336L474.672 265.272L474.597 260.171V255.82H480.149V272.624C480.149 276.375 479.173 279.138 477.223 280.914C475.272 282.689 472.472 283.577 468.821 283.577ZM467.921 275.025C466.045 275.025 464.345 274.625 462.819 273.824C461.319 272.999 460.106 271.862 459.181 270.411C458.281 268.936 457.831 267.223 457.831 265.272C457.831 263.297 458.281 261.584 459.181 260.134C460.106 258.658 461.319 257.521 462.819 256.72C464.345 255.92 466.045 255.52 467.921 255.52C469.621 255.52 471.121 255.87 472.422 256.57C473.722 257.246 474.735 258.308 475.46 259.759C476.185 261.184 476.548 263.022 476.548 265.272C476.548 267.498 476.185 269.336 475.46 270.786C474.735 272.212 473.722 273.274 472.422 273.975C471.121 274.675 469.621 275.025 467.921 275.025ZM469.083 270.224C470.109 270.224 471.021 270.024 471.822 269.623C472.622 269.198 473.247 268.611 473.697 267.861C474.147 267.11 474.372 266.248 474.372 265.272C474.372 264.272 474.147 263.409 473.697 262.684C473.247 261.934 472.622 261.359 471.822 260.959C471.021 260.534 470.109 260.321 469.083 260.321C468.058 260.321 467.145 260.534 466.345 260.959C465.545 261.359 464.907 261.934 464.432 262.684C463.982 263.409 463.757 264.272 463.757 265.272C463.757 266.248 463.982 267.11 464.432 267.861C464.907 268.611 465.545 269.198 466.345 269.623C467.145 270.024 468.058 270.224 469.083 270.224ZM497.973 276V272.062L497.598 271.199V264.147C497.598 262.897 497.21 261.922 496.435 261.221C495.685 260.521 494.522 260.171 492.946 260.171C491.871 260.171 490.808 260.346 489.758 260.696C488.733 261.021 487.858 261.472 487.133 262.047L485.032 257.958C486.132 257.183 487.458 256.583 489.008 256.158C490.558 255.733 492.134 255.52 493.734 255.52C496.81 255.52 499.198 256.245 500.898 257.696C502.599 259.146 503.449 261.409 503.449 264.485V276H497.973ZM491.821 276.3C490.246 276.3 488.895 276.038 487.77 275.512C486.645 274.962 485.782 274.225 485.182 273.299C484.582 272.374 484.282 271.336 484.282 270.186C484.282 268.986 484.569 267.936 485.145 267.035C485.745 266.135 486.682 265.435 487.958 264.935C489.233 264.41 490.896 264.147 492.946 264.147H498.31V267.56H493.584C492.209 267.56 491.259 267.786 490.733 268.236C490.233 268.686 489.983 269.248 489.983 269.924C489.983 270.674 490.271 271.274 490.846 271.724C491.446 272.149 492.259 272.362 493.284 272.362C494.259 272.362 495.134 272.137 495.91 271.686C496.685 271.211 497.247 270.524 497.598 269.623L498.498 272.324C498.073 273.624 497.297 274.612 496.172 275.287C495.047 275.962 493.597 276.3 491.821 276.3ZM519.78 276V249.744H524.806L535.984 268.273H533.321L544.311 249.744H549.3L549.375 276H543.673L543.636 258.483H544.686L535.909 273.224H533.171L524.206 258.483H525.481V276H519.78ZM565.206 276.3C562.906 276.3 560.88 275.85 559.13 274.95C557.404 274.05 556.067 272.824 555.116 271.274C554.166 269.698 553.691 267.911 553.691 265.91C553.691 263.885 554.154 262.097 555.079 260.546C556.029 258.971 557.317 257.746 558.942 256.87C560.568 255.97 562.406 255.52 564.456 255.52C566.432 255.52 568.207 255.945 569.782 256.795C571.383 257.621 572.646 258.821 573.571 260.396C574.496 261.947 574.959 263.81 574.959 265.985C574.959 266.21 574.946 266.473 574.921 266.773C574.896 267.048 574.871 267.31 574.846 267.56H558.455V264.147H571.77L569.52 265.16C569.52 264.11 569.307 263.197 568.882 262.422C568.457 261.647 567.869 261.046 567.119 260.621C566.369 260.171 565.494 259.946 564.494 259.946C563.493 259.946 562.606 260.171 561.831 260.621C561.08 261.046 560.493 261.659 560.068 262.459C559.642 263.234 559.43 264.16 559.43 265.235V266.135C559.43 267.235 559.668 268.211 560.143 269.061C560.643 269.886 561.33 270.524 562.206 270.974C563.106 271.399 564.156 271.611 565.356 271.611C566.432 271.611 567.369 271.449 568.17 271.124C568.995 270.799 569.745 270.311 570.42 269.661L573.533 273.037C572.608 274.087 571.445 274.9 570.045 275.475C568.645 276.025 567.032 276.3 565.206 276.3ZM591.12 255.52C592.72 255.52 594.145 255.845 595.396 256.495C596.671 257.12 597.671 258.096 598.397 259.421C599.122 260.721 599.484 262.397 599.484 264.447V276H593.633V265.347C593.633 263.722 593.27 262.522 592.545 261.747C591.845 260.971 590.845 260.584 589.544 260.584C588.619 260.584 587.781 260.784 587.031 261.184C586.306 261.559 585.731 262.147 585.306 262.947C584.906 263.747 584.706 264.772 584.706 266.023V276H578.854V255.82H584.443V261.409L583.393 259.721C584.118 258.371 585.156 257.333 586.506 256.608C587.856 255.883 589.394 255.52 591.12 255.52ZM606.973 283.577C605.922 283.577 604.885 283.414 603.859 283.089C602.834 282.764 601.996 282.314 601.346 281.739L603.484 277.575C603.934 277.975 604.447 278.288 605.022 278.513C605.622 278.738 606.21 278.851 606.785 278.851C607.61 278.851 608.26 278.651 608.735 278.251C609.236 277.875 609.686 277.238 610.086 276.338L611.136 273.862L611.586 273.224L618.825 255.82H624.452L615.337 277.238C614.687 278.863 613.937 280.138 613.087 281.064C612.261 281.989 611.336 282.639 610.311 283.014C609.311 283.389 608.198 283.577 606.973 283.577ZM610.423 276.788L601.421 255.82H607.46L614.437 272.699L610.423 276.788ZM636.305 276.3C634.004 276.3 631.979 275.85 630.228 274.95C628.503 274.05 627.165 272.824 626.215 271.274C625.265 269.698 624.79 267.911 624.79 265.91C624.79 263.885 625.252 262.097 626.177 260.546C627.128 258.971 628.416 257.746 630.041 256.87C631.666 255.97 633.504 255.52 635.555 255.52C637.53 255.52 639.306 255.945 640.881 256.795C642.481 257.621 643.744 258.821 644.669 260.396C645.595 261.947 646.057 263.81 646.057 265.985C646.057 266.21 646.045 266.473 646.02 266.773C645.995 267.048 645.97 267.31 645.945 267.56H629.553V264.147H642.869L640.618 265.16C640.618 264.11 640.406 263.197 639.981 262.422C639.556 261.647 638.968 261.046 638.218 260.621C637.468 260.171 636.592 259.946 635.592 259.946C634.592 259.946 633.704 260.171 632.929 260.621C632.179 261.046 631.591 261.659 631.166 262.459C630.741 263.234 630.529 264.16 630.529 265.235V266.135C630.529 267.235 630.766 268.211 631.241 269.061C631.741 269.886 632.429 270.524 633.304 270.974C634.204 271.399 635.255 271.611 636.455 271.611C637.53 271.611 638.468 271.449 639.268 271.124C640.093 270.799 640.843 270.311 641.519 269.661L644.632 273.037C643.707 274.087 642.544 274.9 641.144 275.475C639.743 276.025 638.13 276.3 636.305 276.3ZM658.617 276.3C656.717 276.3 655.004 275.875 653.479 275.025C651.953 274.15 650.741 272.937 649.84 271.386C648.965 269.836 648.528 268.011 648.528 265.91C648.528 263.785 648.965 261.947 649.84 260.396C650.741 258.846 651.953 257.646 653.479 256.795C655.004 255.945 656.717 255.52 658.617 255.52C660.318 255.52 661.806 255.895 663.081 256.645C664.356 257.396 665.344 258.533 666.044 260.059C666.744 261.584 667.095 263.535 667.095 265.91C667.095 268.261 666.757 270.211 666.082 271.761C665.407 273.287 664.431 274.425 663.156 275.175C661.906 275.925 660.393 276.3 658.617 276.3ZM659.63 271.499C660.58 271.499 661.443 271.274 662.218 270.824C662.994 270.374 663.606 269.736 664.056 268.911C664.531 268.061 664.769 267.06 664.769 265.91C664.769 264.735 664.531 263.735 664.056 262.909C663.606 262.084 662.994 261.447 662.218 260.996C661.443 260.546 660.58 260.321 659.63 260.321C658.655 260.321 657.78 260.546 657.005 260.996C656.229 261.447 655.604 262.084 655.129 262.909C654.679 263.735 654.454 264.735 654.454 265.91C654.454 267.06 654.679 268.061 655.129 268.911C655.604 269.736 656.229 270.374 657.005 270.824C657.78 271.274 658.655 271.499 659.63 271.499ZM664.919 276V271.874L665.032 265.873L664.656 259.909V248.168H670.508V276H664.919ZM675.923 276V255.82H681.775V276H675.923ZM678.849 253.007C677.774 253.007 676.899 252.694 676.224 252.069C675.548 251.444 675.211 250.669 675.211 249.744C675.211 248.818 675.548 248.043 676.224 247.418C676.899 246.793 677.774 246.48 678.849 246.48C679.924 246.48 680.8 246.781 681.475 247.381C682.15 247.956 682.488 248.706 682.488 249.631C682.488 250.606 682.15 251.419 681.475 252.069C680.825 252.694 679.949 253.007 678.849 253.007ZM699.583 276V272.062L699.208 271.199V264.147C699.208 262.897 698.821 261.922 698.046 261.221C697.295 260.521 696.133 260.171 694.557 260.171C693.482 260.171 692.419 260.346 691.369 260.696C690.344 261.021 689.469 261.472 688.743 262.047L686.643 257.958C687.743 257.183 689.068 256.583 690.619 256.158C692.169 255.733 693.745 255.52 695.345 255.52C698.421 255.52 700.809 256.245 702.509 257.696C704.21 259.146 705.06 261.409 705.06 264.485V276H699.583ZM693.432 276.3C691.857 276.3 690.506 276.038 689.381 275.512C688.256 274.962 687.393 274.225 686.793 273.299C686.193 272.374 685.893 271.336 685.893 270.186C685.893 268.986 686.18 267.936 686.755 267.035C687.356 266.135 688.293 265.435 689.569 264.935C690.844 264.41 692.507 264.147 694.557 264.147H699.921V267.56H695.195C693.82 267.56 692.869 267.786 692.344 268.236C691.844 268.686 691.594 269.248 691.594 269.924C691.594 270.674 691.882 271.274 692.457 271.724C693.057 272.149 693.87 272.362 694.895 272.362C695.87 272.362 696.745 272.137 697.52 271.686C698.296 271.211 698.858 270.524 699.208 269.623L700.109 272.324C699.683 273.624 698.908 274.612 697.783 275.287C696.658 275.962 695.207 276.3 693.432 276.3ZM715.194 271.874L715.344 264.747L724.759 255.82H731.736L722.696 265.01L719.658 267.485L715.194 271.874ZM710.356 276V248.168H716.207V276H710.356ZM725.397 276L718.57 267.523L722.246 262.984L732.486 276H725.397ZM747.129 276V272.062L746.754 271.199V264.147C746.754 262.897 746.366 261.922 745.591 261.221C744.841 260.521 743.678 260.171 742.103 260.171C741.028 260.171 739.965 260.346 738.915 260.696C737.889 261.021 737.014 261.472 736.289 262.047L734.188 257.958C735.289 257.183 736.614 256.583 738.164 256.158C739.715 255.733 741.29 255.52 742.891 255.52C745.966 255.52 748.354 256.245 750.055 257.696C751.755 259.146 752.605 261.409 752.605 264.485V276H747.129ZM740.978 276.3C739.402 276.3 738.052 276.038 736.927 275.512C735.801 274.962 734.939 274.225 734.338 273.299C733.738 272.374 733.438 271.336 733.438 270.186C733.438 268.986 733.726 267.936 734.301 267.035C734.901 266.135 735.839 265.435 737.114 264.935C738.389 264.41 740.052 264.147 742.103 264.147H747.467V267.56H742.74C741.365 267.56 740.415 267.786 739.89 268.236C739.39 268.686 739.14 269.248 739.14 269.924C739.14 270.674 739.427 271.274 740.002 271.724C740.602 272.149 741.415 272.362 742.44 272.362C743.416 272.362 744.291 272.137 745.066 271.686C745.841 271.211 746.404 270.524 746.754 269.623L747.654 272.324C747.229 273.624 746.454 274.612 745.329 275.287C744.203 275.962 742.753 276.3 740.978 276.3ZM770.167 255.52C771.767 255.52 773.192 255.845 774.443 256.495C775.718 257.12 776.718 258.096 777.443 259.421C778.168 260.721 778.531 262.397 778.531 264.447V276H772.68V265.347C772.68 263.722 772.317 262.522 771.592 261.747C770.892 260.971 769.891 260.584 768.591 260.584C767.666 260.584 766.828 260.784 766.078 261.184C765.353 261.559 764.778 262.147 764.353 262.947C763.953 263.747 763.752 264.772 763.752 266.023V276H757.901V255.82H763.49V261.409L762.44 259.721C763.165 258.371 764.203 257.333 765.553 256.608C766.903 255.883 768.441 255.52 770.167 255.52Z" fill="white"/>
<path d="M186.321 506.45C184.22 506.45 182.207 506.175 180.282 505.625C178.356 505.05 176.806 504.312 175.631 503.412L177.694 498.836C178.819 499.636 180.144 500.299 181.67 500.824C183.22 501.324 184.783 501.574 186.358 501.574C187.559 501.574 188.521 501.461 189.246 501.236C189.997 500.986 190.547 500.649 190.897 500.224C191.247 499.799 191.422 499.311 191.422 498.761C191.422 498.061 191.147 497.51 190.597 497.11C190.047 496.685 189.321 496.348 188.421 496.098C187.521 495.823 186.521 495.573 185.421 495.347C184.345 495.097 183.258 494.797 182.157 494.447C181.082 494.097 180.094 493.647 179.194 493.097C178.294 492.547 177.556 491.822 176.981 490.921C176.431 490.021 176.156 488.871 176.156 487.471C176.156 485.97 176.556 484.607 177.356 483.382C178.181 482.132 179.407 481.144 181.032 480.419C182.682 479.669 184.745 479.294 187.221 479.294C188.871 479.294 190.497 479.494 192.097 479.894C193.698 480.269 195.11 480.844 196.336 481.619L194.46 486.233C193.235 485.533 192.01 485.02 190.784 484.695C189.559 484.345 188.359 484.17 187.183 484.17C186.008 484.17 185.045 484.307 184.295 484.582C183.545 484.857 183.007 485.22 182.682 485.67C182.357 486.095 182.195 486.595 182.195 487.17C182.195 487.846 182.47 488.396 183.02 488.821C183.57 489.221 184.295 489.546 185.195 489.796C186.096 490.046 187.083 490.296 188.159 490.546C189.259 490.796 190.347 491.084 191.422 491.409C192.522 491.734 193.522 492.172 194.423 492.722C195.323 493.272 196.048 493.997 196.598 494.897C197.173 495.798 197.461 496.935 197.461 498.311C197.461 499.786 197.048 501.136 196.223 502.362C195.398 503.587 194.16 504.575 192.51 505.325C190.884 506.075 188.821 506.45 186.321 506.45ZM207.202 490.321H219.842V495.047H207.202V490.321ZM207.652 501.124H221.943V506H201.613V479.744H221.455V484.62H207.652V501.124ZM235.405 506.45C233.304 506.45 231.291 506.175 229.366 505.625C227.44 505.05 225.89 504.312 224.715 503.412L226.778 498.836C227.903 499.636 229.228 500.299 230.754 500.824C232.304 501.324 233.867 501.574 235.442 501.574C236.643 501.574 237.605 501.461 238.33 501.236C239.081 500.986 239.631 500.649 239.981 500.224C240.331 499.799 240.506 499.311 240.506 498.761C240.506 498.061 240.231 497.51 239.681 497.11C239.131 496.685 238.405 496.348 237.505 496.098C236.605 495.823 235.605 495.573 234.505 495.347C233.429 495.097 232.342 494.797 231.241 494.447C230.166 494.097 229.178 493.647 228.278 493.097C227.378 492.547 226.64 491.822 226.065 490.921C225.515 490.021 225.24 488.871 225.24 487.471C225.24 485.97 225.64 484.607 226.44 483.382C227.265 482.132 228.491 481.144 230.116 480.419C231.766 479.669 233.829 479.294 236.305 479.294C237.955 479.294 239.581 479.494 241.181 479.894C242.782 480.269 244.194 480.844 245.42 481.619L243.544 486.233C242.319 485.533 241.094 485.02 239.868 484.695C238.643 484.345 237.443 484.17 236.267 484.17C235.092 484.17 234.129 484.307 233.379 484.582C232.629 484.857 232.091 485.22 231.766 485.67C231.441 486.095 231.279 486.595 231.279 487.17C231.279 487.846 231.554 488.396 232.104 488.821C232.654 489.221 233.379 489.546 234.28 489.796C235.18 490.046 236.167 490.296 237.243 490.546C238.343 490.796 239.431 491.084 240.506 491.409C241.606 491.734 242.607 492.172 243.507 492.722C244.407 493.272 245.132 493.997 245.682 494.897C246.257 495.798 246.545 496.935 246.545 498.311C246.545 499.786 246.132 501.136 245.307 502.362C244.482 503.587 243.244 504.575 241.594 505.325C239.968 506.075 237.905 506.45 235.405 506.45ZM262.362 506.45C258.636 506.45 255.723 505.412 253.623 503.337C251.522 501.261 250.472 498.298 250.472 494.447V479.744H256.548V494.222C256.548 496.723 257.061 498.523 258.086 499.623C259.112 500.724 260.549 501.274 262.4 501.274C264.25 501.274 265.688 500.724 266.713 499.623C267.739 498.523 268.251 496.723 268.251 494.222V479.744H274.253V494.447C274.253 498.298 273.202 501.261 271.102 503.337C269.001 505.412 266.088 506.45 262.362 506.45ZM276.257 506L287.96 479.744H293.961L305.702 506H299.325L289.723 482.819H292.123L282.484 506H276.257ZM282.108 500.374L283.721 495.76H297.225L298.875 500.374H282.108ZM308.426 506V479.744H314.502V506H308.426ZM331.356 506V479.744H343.284C346.135 479.744 348.648 480.294 350.823 481.394C352.999 482.469 354.699 483.982 355.924 485.933C357.15 487.883 357.762 490.196 357.762 492.872C357.762 495.522 357.15 497.836 355.924 499.811C354.699 501.761 352.999 503.287 350.823 504.387C348.648 505.462 346.135 506 343.284 506H331.356ZM337.432 501.011H342.984C344.734 501.011 346.247 500.686 347.522 500.036C348.823 499.361 349.823 498.411 350.523 497.185C351.248 495.96 351.611 494.522 351.611 492.872C351.611 491.196 351.248 489.759 350.523 488.558C349.823 487.333 348.823 486.395 347.522 485.745C346.247 485.07 344.734 484.732 342.984 484.732H337.432V501.011ZM367.934 490.321H380.574V495.047H367.934V490.321ZM368.384 501.124H382.675V506H362.345V479.744H382.187V484.62H368.384V501.124ZM387.51 506V479.744H392.536L408.027 498.648H405.589V479.744H411.59V506H406.602L391.073 487.095H393.511V506H387.51ZM430.481 506.45C428.405 506.45 426.492 506.125 424.742 505.475C423.016 504.8 421.503 503.849 420.203 502.624C418.928 501.399 417.927 499.961 417.202 498.311C416.502 496.66 416.152 494.847 416.152 492.872C416.152 490.896 416.502 489.083 417.202 487.433C417.927 485.783 418.94 484.345 420.241 483.12C421.541 481.894 423.066 480.957 424.817 480.306C426.567 479.631 428.493 479.294 430.593 479.294C432.919 479.294 435.007 479.681 436.857 480.456C438.732 481.232 440.308 482.357 441.583 483.832L437.682 487.433C436.732 486.433 435.694 485.695 434.569 485.22C433.444 484.72 432.218 484.47 430.893 484.47C429.618 484.47 428.455 484.67 427.405 485.07C426.355 485.47 425.442 486.045 424.667 486.795C423.916 487.546 423.329 488.433 422.904 489.459C422.504 490.484 422.304 491.622 422.304 492.872C422.304 494.097 422.504 495.222 422.904 496.248C423.329 497.273 423.916 498.173 424.667 498.948C425.442 499.698 426.342 500.274 427.367 500.674C428.418 501.074 429.568 501.274 430.818 501.274C432.018 501.274 433.181 501.086 434.306 500.711C435.457 500.311 436.569 499.648 437.645 498.723L441.096 503.112C439.67 504.187 438.007 505.012 436.107 505.587C434.231 506.163 432.356 506.45 430.481 506.45ZM435.544 502.324V492.459H441.096V503.112L435.544 502.324ZM443.289 506L454.992 479.744H460.993L472.734 506H466.357L456.755 482.819H459.156L449.516 506H443.289ZM449.141 500.374L450.754 495.76H464.257L465.907 500.374H449.141ZM475.458 506V479.744H480.484L495.975 498.648H493.537V479.744H499.539V506H494.55L479.021 487.095H481.459V506H475.458ZM521.812 499.999L521.475 492.984L534.04 479.744H540.792L529.464 491.934L526.088 495.535L521.812 499.999ZM516.373 506V479.744H522.412V506H516.373ZM534.34 506L525.001 494.56L528.976 490.246L541.429 506H534.34ZM549.728 490.321H562.368V495.047H549.728V490.321ZM550.178 501.124H564.469V506H544.139V479.744H563.981V484.62H550.178V501.124ZM569.304 506V479.744H582.132C585.432 479.744 587.908 480.369 589.558 481.619C591.234 482.869 592.072 484.52 592.072 486.57C592.072 487.946 591.734 489.146 591.059 490.171C590.384 491.171 589.458 491.947 588.283 492.497C587.108 493.047 585.758 493.322 584.232 493.322L584.945 491.784C586.595 491.784 588.058 492.059 589.333 492.609C590.609 493.134 591.596 493.922 592.297 494.972C593.022 496.023 593.384 497.31 593.384 498.836C593.384 501.086 592.497 502.849 590.721 504.125C588.946 505.375 586.333 506 582.882 506H569.304ZM575.343 501.424H582.432C584.007 501.424 585.195 501.174 585.995 500.674C586.82 500.149 587.233 499.323 587.233 498.198C587.233 497.098 586.82 496.285 585.995 495.76C585.195 495.21 584.007 494.935 582.432 494.935H574.892V490.509H581.382C582.857 490.509 583.982 490.259 584.757 489.759C585.558 489.233 585.958 488.446 585.958 487.396C585.958 486.37 585.558 485.608 584.757 485.107C583.982 484.582 582.857 484.32 581.382 484.32H575.343V501.424ZM609.65 506.45C605.924 506.45 603.011 505.412 600.91 503.337C598.81 501.261 597.76 498.298 597.76 494.447V479.744H603.836V494.222C603.836 496.723 604.349 498.523 605.374 499.623C606.399 500.724 607.837 501.274 609.688 501.274C611.538 501.274 612.976 500.724 614.001 499.623C615.026 498.523 615.539 496.723 615.539 494.222V479.744H621.54V494.447C621.54 498.298 620.49 501.261 618.39 503.337C616.289 505.412 613.376 506.45 609.65 506.45ZM632.544 506V484.695H624.142V479.744H647.023V484.695H638.621V506H632.544ZM661.518 506.45C657.792 506.45 654.879 505.412 652.778 503.337C650.678 501.261 649.628 498.298 649.628 494.447V479.744H655.704V494.222C655.704 496.723 656.217 498.523 657.242 499.623C658.267 500.724 659.705 501.274 661.555 501.274C663.406 501.274 664.844 500.724 665.869 499.623C666.894 498.523 667.407 496.723 667.407 494.222V479.744H673.408V494.447C673.408 498.298 672.358 501.261 670.258 503.337C668.157 505.412 665.244 506.45 661.518 506.45ZM697.417 479.744H703.494V506H697.417V479.744ZM685.489 506H679.413V479.744H685.489V506ZM697.867 495.235H685.039V490.096H697.867V495.235ZM706.255 506L717.958 479.744H723.959L735.7 506H729.323L719.721 482.819H722.121L712.482 506H706.255ZM712.106 500.374L713.719 495.76H727.223L728.873 500.374H712.106ZM738.424 506V479.744H743.45L758.941 498.648H756.503V479.744H762.504V506H757.516L741.987 487.095H744.425V506H738.424ZM775.888 506L787.591 479.744H793.593L805.333 506H798.956L789.354 482.819H791.755L782.115 506H775.888ZM781.74 500.374L783.353 495.76H796.856L798.506 500.374H781.74ZM808.057 506V479.744H813.083L828.575 498.648H826.136V479.744H832.138V506H827.149L811.62 487.095H814.059V506H808.057ZM838.35 506V479.744H850.278C853.129 479.744 855.642 480.294 857.817 481.394C859.993 482.469 861.693 483.982 862.918 485.933C864.144 487.883 864.756 490.196 864.756 492.872C864.756 495.522 864.144 497.836 862.918 499.811C861.693 501.761 859.993 503.287 857.817 504.387C855.642 505.462 853.129 506 850.278 506H838.35ZM844.426 501.011H849.978C851.728 501.011 853.241 500.686 854.516 500.036C855.817 499.361 856.817 498.411 857.517 497.185C858.242 495.96 858.605 494.522 858.605 492.872C858.605 491.196 858.242 489.759 857.517 488.558C856.817 487.333 855.817 486.395 854.516 485.745C853.241 485.07 851.728 484.732 849.978 484.732H844.426V501.011ZM865.522 506L877.225 479.744H883.226L894.966 506H888.59L878.987 482.819H881.388L871.748 506H865.522ZM871.373 500.374L872.986 495.76H886.489L888.14 500.374H871.373ZM897.69 496.885L896.528 479.744H903.504L902.341 496.885H897.69ZM900.016 506.3C898.966 506.3 898.103 505.962 897.428 505.287C896.753 504.612 896.415 503.812 896.415 502.887C896.415 501.937 896.753 501.149 897.428 500.524C898.103 499.874 898.966 499.548 900.016 499.548C901.091 499.548 901.954 499.874 902.604 500.524C903.279 501.149 903.617 501.937 903.617 502.887C903.617 503.812 903.279 504.612 902.604 505.287C901.954 505.962 901.091 506.3 900.016 506.3Z" fill="white"/>
<path d="M153.415 368.06V297.496H169.745V354.754H205.128V368.06H153.415ZM205.372 368.06L236.823 297.496H252.952L284.504 368.06H267.367L241.561 305.762H248.012L222.106 368.06H205.372ZM221.097 352.939L225.432 340.54H261.722L266.157 352.939H221.097ZM305.034 368.06V339.23L308.763 349.109L277.715 297.496H295.054L318.844 337.113H308.864L332.755 297.496H348.783L317.735 349.109L321.364 339.23V368.06H305.034ZM342.01 368.06L373.462 297.496H389.59L421.143 368.06H404.006L378.199 305.762H384.651L358.744 368.06H342.01ZM357.736 352.939L362.071 340.54H398.361L402.796 352.939H357.736ZM428.464 368.06V297.496H441.972L483.604 348.302H477.052V297.496H493.181V368.06H479.774L438.04 317.254H444.592V368.06H428.464ZM500.602 368.06L532.053 297.496H548.182L579.734 368.06H562.597L536.791 305.762H543.242L517.335 368.06H500.602ZM516.327 352.939L520.662 340.54H556.952L561.387 352.939H516.327ZM587.055 368.06V297.496H600.563L642.195 348.302H635.643V297.496H651.772V368.06H638.365L596.631 317.254H603.184V368.06H587.055ZM712.035 325.923H746.007V338.625H712.035V325.923ZM713.245 354.955H751.652V368.06H697.015V297.496H750.341V310.601H713.245V354.955ZM764.646 368.06V297.496H796.702C804.363 297.496 811.117 298.975 816.964 301.932C822.81 304.821 827.38 308.887 830.673 314.129C833.966 319.371 835.613 325.587 835.613 332.778C835.613 339.902 833.966 346.118 830.673 351.427C827.38 356.669 822.81 360.768 816.964 363.725C811.117 366.615 804.363 368.06 796.702 368.06H764.646ZM780.976 354.653H795.895C800.6 354.653 804.665 353.779 808.093 352.032C811.587 350.218 814.275 347.664 816.157 344.371C818.106 341.078 819.081 337.214 819.081 332.778C819.081 328.276 818.106 324.411 816.157 321.186C814.275 317.893 811.587 315.372 808.093 313.625C804.665 311.811 800.6 310.903 795.895 310.903H780.976V354.653ZM847.928 368.06V297.496H864.259V368.06H847.928ZM895.622 368.06V310.803H873.041V297.496H934.533V310.803H911.952V368.06H895.622ZM186.934 454.06V383.496H203.265V454.06H186.934ZM243.196 455.27C237.551 455.27 232.141 454.53 226.967 453.052C221.792 451.506 217.625 449.524 214.467 447.104L220.011 434.806C223.035 436.957 226.597 438.738 230.696 440.149C234.863 441.493 239.063 442.165 243.297 442.165C246.523 442.165 249.11 441.863 251.059 441.258C253.075 440.586 254.554 439.678 255.495 438.536C256.435 437.394 256.906 436.083 256.906 434.605C256.906 432.723 256.167 431.244 254.688 430.169C253.21 429.027 251.261 428.119 248.841 427.447C246.422 426.708 243.734 426.036 240.777 425.431C237.887 424.759 234.964 423.953 232.007 423.012C229.117 422.071 226.463 420.861 224.043 419.383C221.624 417.905 219.641 415.956 218.096 413.536C216.617 411.117 215.878 408.026 215.878 404.262C215.878 400.23 216.953 396.567 219.104 393.274C221.321 389.914 224.614 387.26 228.983 385.311C233.418 383.295 238.962 382.287 245.616 382.287C250.051 382.287 254.419 382.824 258.72 383.9C263.021 384.908 266.818 386.453 270.111 388.537L265.071 400.936C261.778 399.054 258.485 397.676 255.192 396.803C251.899 395.862 248.673 395.391 245.515 395.391C242.356 395.391 239.769 395.761 237.753 396.5C235.737 397.239 234.292 398.214 233.418 399.424C232.544 400.566 232.108 401.91 232.108 403.456C232.108 405.27 232.847 406.749 234.325 407.891C235.804 408.966 237.753 409.84 240.172 410.512C242.591 411.184 245.246 411.856 248.136 412.528C251.093 413.2 254.016 413.973 256.906 414.847C259.863 415.72 262.551 416.896 264.97 418.375C267.39 419.853 269.338 421.802 270.817 424.222C272.363 426.641 273.135 429.699 273.135 433.395C273.135 437.36 272.027 440.989 269.809 444.282C267.591 447.575 264.265 450.229 259.829 452.246C255.461 454.262 249.917 455.27 243.196 455.27ZM284.294 454.06V383.496H300.625V454.06H284.294ZM360.536 454.06V396.803H337.956V383.496H399.447V396.803H376.867V454.06H360.536ZM423.254 411.923H457.225V424.625H423.254V411.923ZM424.463 440.955H462.87V454.06H408.234V383.496H461.56V396.601H424.463V440.955ZM475.864 454.06V383.496H489.372L519.412 433.294H512.255L541.79 383.496H555.198L555.399 454.06H540.077L539.976 406.984H542.799L519.21 446.6H511.851L487.759 406.984H491.186V454.06H475.864ZM572.141 454.06V383.496H602.685C609.002 383.496 614.445 384.538 619.015 386.621C623.585 388.637 627.113 391.561 629.6 395.391C632.086 399.222 633.33 403.792 633.33 409.101C633.33 414.343 632.086 418.879 629.6 422.71C627.113 426.54 623.585 429.497 619.015 431.58C614.445 433.597 609.002 434.605 602.685 434.605H581.213L588.471 427.246V454.06H572.141ZM588.471 429.06L581.213 421.298H601.778C606.818 421.298 610.581 420.223 613.068 418.073C615.554 415.922 616.798 412.931 616.798 409.101C616.798 405.203 615.554 402.179 613.068 400.028C610.581 397.878 606.818 396.803 601.778 396.803H581.213L588.471 389.041V429.06ZM644.988 454.06V383.496H661.319V440.754H696.702V454.06H644.988ZM696.946 454.06L728.397 383.496H744.526L776.078 454.06H758.941L733.135 391.762H739.586L713.679 454.06H696.946ZM712.671 438.939L717.006 426.54H753.296L757.731 438.939H712.671ZM794.472 454.06V396.803H771.891V383.496H833.383V396.803H810.802V454.06H794.472ZM857.189 411.923H891.161V424.625H857.189V411.923ZM858.399 440.955H896.806V454.06H842.169V383.496H895.495V396.601H858.399V440.955Z" fill="white"/>
<path fill-rule="evenodd" clip-rule="evenodd" d="M271 261V267H123C95.938 267 74 288.938 74 316V443C74 470.062 95.938 492 123 492H161V498H123C92.6243 498 68 473.376 68 443V316C68 285.624 92.6243 261 123 261H271Z" fill="white"/>
<path fill-rule="evenodd" clip-rule="evenodd" d="M808 261V267H956C983.062 267 1005 288.938 1005 316V443C1005 470.062 983.062 492 956 492H918V498H956C986.376 498 1011 473.376 1011 443V316C1011 285.624 986.376 261 956 261H808Z" fill="white"/>
</svg>
