<svg width="276" height="92" viewBox="0 0 276 92" fill="none" xmlns="http://www.w3.org/2000/svg">
<path fill-rule="evenodd" clip-rule="evenodd" d="M276 10.5712C276 7.76755 274.877 5.07872 272.878 3.09623C270.879 1.11375 268.169 0 265.342 0L58.6582 0.125027C55.8315 0.125027 53.1205 1.23878 51.1217 3.22126C49.1229 5.20375 48 7.89257 48 10.6962V81.1045C48 83.9081 49.1229 86.5969 51.1217 88.5794C53.1205 90.5619 55.8315 91.6757 58.6582 91.6757L265.342 91.6757C268.169 91.6757 270.879 90.5619 272.878 88.5794C274.877 86.5969 276 83.9081 276 81.1045C276 46.2129 276 45.5049 276 10.5712Z" fill="#F1F1F1"/>
<path d="M117.164 55H130.538V51.5586H121.387V36.7504H117.164V55ZM137.095 51.6108V47.3873H145.568V44.1024H137.095V40.1396H146.69V36.7504H132.898V55H147.028V51.6108H137.095ZM170.959 55L170.907 36.7504H167.439L160.713 48.0912L153.882 36.7504H150.389V55H154.352V44.2849L159.696 53.0708H161.599L166.97 44.0502L166.996 55H170.959ZM188.689 45.5102C190.175 44.7281 191.114 43.3203 191.114 41.4953C191.114 38.6536 188.767 36.7504 184.205 36.7504H175.289V55H184.726C189.523 55 192.026 53.175 192.026 50.0205C192.026 47.7262 190.723 46.162 188.689 45.5102ZM183.683 39.931C185.743 39.931 186.864 40.635 186.864 42.0689C186.864 43.5027 185.743 44.2327 183.683 44.2327H179.486V39.931H183.683ZM184.413 51.8194H179.486V47.3091H184.413C186.603 47.3091 187.777 48.0391 187.777 49.5773C187.777 51.1415 186.603 51.8194 184.413 51.8194ZM208.859 55H213.291L205.131 36.7504H200.959L192.825 55H197.153L198.769 51.0894H207.242L208.859 55ZM200.125 47.8827L203.019 40.8957L205.913 47.8827H200.125ZM227.261 50.9329C226.192 51.5065 225.123 51.7151 223.976 51.7151C220.483 51.7151 218.058 49.2905 218.058 45.8752C218.058 42.4078 220.483 40.0353 224.028 40.0353C225.879 40.0353 227.418 40.6871 228.747 42.0949L231.459 39.5921C229.686 37.5325 227.027 36.4375 223.82 36.4375C218.006 36.4375 213.783 40.3742 213.783 45.8752C213.783 51.3761 218.006 55.3129 223.742 55.3129C226.349 55.3129 229.112 54.5047 231.12 52.9925V45.5884H227.261V50.9329ZM248.678 55H253.11L244.95 36.7504H240.778L232.644 55H236.972L238.589 51.0894H247.062L248.678 55ZM239.944 47.8827L242.838 40.8957L245.732 47.8827H239.944Z" fill="black"/>
<path fill-rule="evenodd" clip-rule="evenodd" d="M104.048 42.3452L95.6957 37.0499C94.7267 36.4352 93.9285 35.5894 93.3742 34.5898C92.8198 33.5901 92.527 32.4686 92.5226 31.3278V10.5712C92.5226 7.76755 91.3997 5.07872 89.4009 3.09623C87.4021 1.11375 84.6911 0 81.8644 0L10.6582 0.125027C7.83148 0.125027 5.12052 1.23878 3.12172 3.22126C1.12291 5.20375 0 7.89257 0 10.6962V81.1045C0 83.9081 1.12291 86.5969 3.12172 88.5794C5.12052 90.5619 7.83148 91.6757 10.6582 91.6757L81.8644 91.6757C84.6911 91.6757 87.4021 90.5619 89.4009 88.5794C91.3997 86.5969 92.5226 83.9081 92.5226 81.1045V60.3716C92.5271 59.2247 92.823 58.0974 93.3829 57.0939C93.9429 56.0904 94.7487 55.243 95.7261 54.6301L104.029 49.4264C104.631 49.0492 105.128 48.5274 105.472 47.9094C105.817 47.2913 105.998 46.597 106 45.8908C106.002 45.1846 105.824 44.4894 105.483 43.8696C105.141 43.2498 104.648 42.7254 104.048 42.3452Z" fill="#1C1C1C"/>
<path d="M71.4425 57.5794V67.7449C71.4425 68.6781 70.6781 69.4425 69.7449 69.4425H59.5794C58.6462 69.4425 57.8818 68.6781 57.8818 67.7449V57.5794C57.8818 56.6462 58.6462 55.8818 59.5794 55.8818H62.9646V50.7991H49.4139V55.8818H52.7991C53.7422 55.8818 54.4966 56.6462 54.4966 57.5794V67.7449C54.4966 68.6781 53.7422 69.4425 52.7991 69.4425H42.6335C41.7004 69.4425 40.9459 68.6781 40.9459 67.7449V57.5794C40.9459 56.6462 41.7004 55.8818 42.6335 55.8818H46.0286V50.7991H32.468V55.8818H35.8631C36.7963 55.8818 37.5507 56.6462 37.5507 57.5794V67.7449C37.5507 68.6781 36.7963 69.4425 35.8631 69.4425H25.6976C24.7545 69.4425 24 68.6781 24 67.7449V57.5794C24 56.6462 24.7545 55.8818 25.6976 55.8818H29.0828V49.1114C29.0828 48.1683 29.8372 47.4139 30.7803 47.4139H46.0286V35.5507H37.5507C36.6176 35.5507 35.8631 34.7963 35.8631 33.8631V23.6976C35.8631 22.7545 36.6176 22 37.5507 22H57.8818C58.8249 22 59.5794 22.7545 59.5794 23.6976V33.8631C59.5794 34.7963 58.8249 35.5507 57.8818 35.5507H49.4139V47.4139H64.6622C65.5953 47.4139 66.3597 48.1683 66.3597 49.1114V55.8818H69.7449C70.6781 55.8818 71.4425 56.6462 71.4425 57.5794V57.5794Z" fill="white"/>
</svg>
