<svg width="276" height="92" viewBox="0 0 276 92" fill="none" xmlns="http://www.w3.org/2000/svg">
<path fill-rule="evenodd" clip-rule="evenodd" d="M276 10.5712C276 7.76755 274.877 5.07872 272.878 3.09623C270.879 1.11375 268.169 0 265.342 0L58.6582 0.125027C55.8315 0.125027 53.1205 1.23878 51.1217 3.22126C49.1229 5.20375 48 7.89257 48 10.6962V81.1045C48 83.9081 49.1229 86.5969 51.1217 88.5794C53.1205 90.5619 55.8315 91.6757 58.6582 91.6757L265.342 91.6757C268.169 91.6757 270.879 90.5619 272.878 88.5794C274.877 86.5969 276 83.9081 276 81.1045C276 46.2129 276 45.5049 276 10.5712Z" fill="#F1F1F1"/>
<path d="M125.063 36.7504H117.164V55H121.387V49.9683H125.063C129.939 49.9683 132.989 47.4394 132.989 43.3724C132.989 39.2793 129.939 36.7504 125.063 36.7504ZM124.829 46.527H121.387V40.1917H124.829C127.41 40.1917 128.713 41.3649 128.713 43.3724C128.713 45.3538 127.41 46.527 124.829 46.527ZM152.168 55L148.075 49.1341C150.447 48.1173 151.829 46.1098 151.829 43.3724C151.829 39.2793 148.779 36.7504 143.904 36.7504H136.004V55H140.228V49.9162H143.904H144.112L147.632 55H152.168ZM147.554 43.3724C147.554 45.3538 146.25 46.553 143.669 46.553H140.228V40.1917H143.669C146.25 40.1917 147.554 41.3649 147.554 43.3724ZM164.013 55.3129C169.749 55.3129 173.999 51.324 173.999 45.8752C173.999 40.4264 169.749 36.4375 164.013 36.4375C158.252 36.4375 154.028 40.4525 154.028 45.8752C154.028 51.2979 158.252 55.3129 164.013 55.3129ZM164.013 51.7151C160.755 51.7151 158.304 49.3426 158.304 45.8752C158.304 42.4078 160.755 40.0353 164.013 40.0353C167.272 40.0353 169.723 42.4078 169.723 45.8752C169.723 49.3426 167.272 51.7151 164.013 51.7151ZM177.173 55H185.463C191.433 55 195.527 51.4022 195.527 45.8752C195.527 40.3482 191.433 36.7504 185.463 36.7504H177.173V55ZM181.396 51.5326V40.2178H185.255C188.879 40.2178 191.251 42.3817 191.251 45.8752C191.251 49.3687 188.879 51.5326 185.255 51.5326H181.396ZM206.82 55.3129C212.008 55.3129 215.084 52.3408 215.084 46.9702V36.7504H210.913V46.8137C210.913 50.2812 209.427 51.7151 206.846 51.7151C204.291 51.7151 202.779 50.2812 202.779 46.8137V36.7504H198.555V46.9702C198.555 52.3408 201.632 55.3129 206.82 55.3129ZM231.746 55H236.673L228.669 44.8845L236.23 36.7504H231.537L223.455 45.2756V36.7504H219.258V55H223.455V50.3855L225.906 47.8305L231.746 55Z" fill="black"/>
<path fill-rule="evenodd" clip-rule="evenodd" d="M104.048 42.3452L95.6957 37.0499C94.7267 36.4352 93.9285 35.5894 93.3742 34.5898C92.8198 33.5901 92.527 32.4686 92.5226 31.3278V10.5712C92.5226 7.76755 91.3997 5.07872 89.4009 3.09623C87.4021 1.11375 84.6911 0 81.8644 0L10.6582 0.125027C7.83148 0.125027 5.12052 1.23878 3.12172 3.22126C1.12291 5.20375 0 7.89257 0 10.6962V81.1045C0 83.9081 1.12291 86.5969 3.12172 88.5794C5.12052 90.5619 7.83148 91.6757 10.6582 91.6757L81.8644 91.6757C84.6911 91.6757 87.4021 90.5619 89.4009 88.5794C91.3997 86.5969 92.5226 83.9081 92.5226 81.1045V60.3716C92.5271 59.2247 92.823 58.0974 93.3829 57.0939C93.9429 56.0904 94.7487 55.243 95.7261 54.6301L104.029 49.4264C104.631 49.0492 105.128 48.5274 105.472 47.9094C105.817 47.2913 105.998 46.597 106 45.8908C106.002 45.1846 105.824 44.4894 105.483 43.8696C105.141 43.2498 104.648 42.7254 104.048 42.3452Z" fill="#1C1C1C"/>
<path fill-rule="evenodd" clip-rule="evenodd" d="M64.212 23.0839C64.156 23.0839 64.1 23.056 64.044 23H63.792H32.208H31.956C31.9 23.056 31.844 23.0839 31.788 23.0839L31.62 23.2518L31.452 23.4196L27.588 30.5536H68.412L64.548 23.4196L64.38 23.2518L64.212 23.0839ZM43.8 32.2321V44.9054L47.496 42.4714C47.608 42.4155 47.692 42.3595 47.748 42.3036H48H48.252C48.308 42.3595 48.392 42.4155 48.504 42.4714L52.2 44.9054V32.2321H43.8ZM53.88 32.2321H69V37.2679H53.88V32.2321ZM69 69.1607C69 69.2726 68.972 69.3845 68.916 69.4964C68.86 69.6083 68.804 69.6923 68.748 69.7482C68.692 69.8042 68.608 69.8601 68.496 69.9161C68.384 69.972 68.272 70 68.16 70H27.84C27.728 70 27.616 69.972 27.504 69.9161C27.392 69.8601 27.308 69.8042 27.252 69.7482C27.196 69.6923 27.14 69.6083 27.084 69.4964C27.028 69.3845 27 69.2726 27 69.1607V38.9464H42.12V46.5C42.12 46.6679 42.148 46.8077 42.204 46.9196L42.54 47.2554C42.708 47.3113 42.848 47.3393 42.96 47.3393C43.128 47.3393 43.296 47.2833 43.464 47.1714L48 44.15L52.536 47.1714C52.704 47.2833 52.872 47.3393 53.04 47.3393C53.152 47.3393 53.292 47.3113 53.46 47.2554C53.572 47.1994 53.684 47.0875 53.796 46.9196C53.852 46.8077 53.88 46.6679 53.88 46.5V38.9464H69V69.1607ZM42.12 32.2321H27V37.2679H42.12V32.2321Z" fill="white"/>
</svg>
