<svg width="276" height="92" viewBox="0 0 276 92" fill="none" xmlns="http://www.w3.org/2000/svg">
<path fill-rule="evenodd" clip-rule="evenodd" d="M276 10.5712C276 7.76755 274.877 5.07872 272.878 3.09623C270.879 1.11375 268.169 0 265.342 0L58.6582 0.125027C55.8315 0.125027 53.1205 1.23878 51.1217 3.22126C49.1229 5.20375 48 7.89257 48 10.6962V81.1045C48 83.9081 49.1229 86.5969 51.1217 88.5794C53.1205 90.5619 55.8315 91.6757 58.6582 91.6757L265.342 91.6757C268.169 91.6757 270.879 90.5619 272.878 88.5794C274.877 86.5969 276 83.9081 276 81.1045C276 46.2129 276 45.5049 276 10.5712Z" fill="#F1F1F1"/>
<path d="M125.063 20.7504H117.164V39H121.387V33.9683H125.063C129.939 33.9683 132.989 31.4394 132.989 27.3724C132.989 23.2793 129.939 20.7504 125.063 20.7504ZM124.829 30.527H121.387V24.1917H124.829C127.41 24.1917 128.713 25.3649 128.713 27.3724C128.713 29.3538 127.41 30.527 124.829 30.527ZM152.168 39L148.075 33.1341C150.447 32.1173 151.829 30.1098 151.829 27.3724C151.829 23.2793 148.779 20.7504 143.904 20.7504H136.004V39H140.228V33.9162H143.904H144.112L147.632 39H152.168ZM147.554 27.3724C147.554 29.3538 146.25 30.553 143.669 30.553H140.228V24.1917H143.669C146.25 24.1917 147.554 25.3649 147.554 27.3724ZM164.013 39.3129C169.749 39.3129 173.999 35.324 173.999 29.8752C173.999 24.4264 169.749 20.4375 164.013 20.4375C158.252 20.4375 154.028 24.4525 154.028 29.8752C154.028 35.2979 158.252 39.3129 164.013 39.3129ZM164.013 35.7151C160.755 35.7151 158.304 33.3426 158.304 29.8752C158.304 26.4078 160.755 24.0353 164.013 24.0353C167.272 24.0353 169.723 26.4078 169.723 29.8752C169.723 33.3426 167.272 35.7151 164.013 35.7151ZM189.504 34.9329C188.435 35.5065 187.366 35.7151 186.219 35.7151C182.726 35.7151 180.301 33.2905 180.301 29.8752C180.301 26.4078 182.726 24.0353 186.271 24.0353C188.122 24.0353 189.661 24.6871 190.99 26.0949L193.702 23.5921C191.929 21.5325 189.27 20.4375 186.063 20.4375C180.249 20.4375 176.026 24.3742 176.026 29.8752C176.026 35.3761 180.249 39.3129 185.985 39.3129C188.592 39.3129 191.355 38.5047 193.363 36.9925V29.5884H189.504V34.9329ZM213.45 39L209.357 33.1341C211.729 32.1173 213.111 30.1098 213.111 27.3724C213.111 23.2793 210.061 20.7504 205.185 20.7504H197.286V39H201.509V33.9162H205.185H205.394L208.914 39H213.45ZM208.835 27.3724C208.835 29.3538 207.532 30.553 204.951 30.553H201.509V24.1917H204.951C207.532 24.1917 208.835 25.3649 208.835 27.3724ZM230.092 39H234.524L226.364 20.7504H222.193L214.059 39H218.386L220.003 35.0894H228.476L230.092 39ZM221.359 31.8827L224.252 24.8957L227.146 31.8827H221.359ZM256.988 39L256.935 20.7504H253.468L246.742 32.0912L239.911 20.7504H236.418V39H240.38V28.2849L245.725 37.0708H247.628L252.999 28.0502L253.025 39H256.988ZM125.898 71.3129C129.078 71.3129 131.711 70.1657 133.432 68.054L130.721 65.5512C129.495 66.9851 127.957 67.7151 126.132 67.7151C122.717 67.7151 120.292 65.3166 120.292 61.8752C120.292 58.4338 122.717 56.0353 126.132 56.0353C127.957 56.0353 129.495 56.7653 130.721 58.1731L133.432 55.6703C131.711 53.5847 129.078 52.4375 125.924 52.4375C120.24 52.4375 116.017 56.3742 116.017 61.8752C116.017 67.3761 120.24 71.3129 125.898 71.3129ZM149.563 71H153.995L145.835 52.7504H141.663L133.529 71H137.857L139.473 67.0894H147.946L149.563 71ZM140.829 63.8827L143.723 56.8957L146.617 63.8827H140.829ZM176.458 71L176.406 52.7504H172.939L166.212 64.0912L159.382 52.7504H155.888V71H159.851V60.2849L165.196 69.0708H167.099L172.469 60.0502L172.495 71H176.458ZM188.687 52.7504H180.788V71H185.011V65.9683H188.687C193.563 65.9683 196.613 63.4394 196.613 59.3724C196.613 55.2793 193.563 52.7504 188.687 52.7504ZM188.453 62.527H185.011V56.1917H188.453C191.034 56.1917 192.337 57.3649 192.337 59.3724C192.337 61.3538 191.034 62.527 188.453 62.527ZM212.347 71H216.779L208.619 52.7504H204.447L196.313 71H200.641L202.257 67.0894H210.73L212.347 71ZM203.613 63.8827L206.507 56.8957L209.401 63.8827H203.613ZM218.672 71H222.896V52.7504H218.672V71ZM239.558 66.9329C238.489 67.5065 237.42 67.7151 236.273 67.7151C232.78 67.7151 230.355 65.2905 230.355 61.8752C230.355 58.4078 232.78 56.0353 236.325 56.0353C238.176 56.0353 239.715 56.6871 241.044 58.0949L243.756 55.5921C241.983 53.5325 239.324 52.4375 236.117 52.4375C230.303 52.4375 226.08 56.3742 226.08 61.8752C226.08 67.3761 230.303 71.3129 236.039 71.3129C238.646 71.3129 241.409 70.5047 243.417 68.9925V61.5884H239.558V66.9329ZM259.906 52.7504V63.8305L250.833 52.7504H247.34V71H251.511V59.9199L260.61 71H264.077V52.7504H259.906Z" fill="black"/>
<path fill-rule="evenodd" clip-rule="evenodd" d="M104.048 42.3452L95.6957 37.0499C94.7267 36.4352 93.9285 35.5894 93.3742 34.5898C92.8198 33.5901 92.527 32.4686 92.5226 31.3278V10.5712C92.5226 7.76755 91.3997 5.07872 89.4009 3.09623C87.4021 1.11375 84.6911 0 81.8644 0L10.6582 0.125027C7.83148 0.125027 5.12052 1.23878 3.12172 3.22126C1.12291 5.20375 0 7.89257 0 10.6962V81.1045C0 83.9081 1.12291 86.5969 3.12172 88.5794C5.12052 90.5619 7.83148 91.6757 10.6582 91.6757L81.8644 91.6757C84.6911 91.6757 87.4021 90.5619 89.4009 88.5794C91.3997 86.5969 92.5226 83.9081 92.5226 81.1045V60.3716C92.5271 59.2247 92.823 58.0974 93.3829 57.0939C93.9429 56.0904 94.7487 55.243 95.7261 54.6301L104.029 49.4264C104.631 49.0492 105.128 48.5274 105.472 47.9094C105.817 47.2913 105.998 46.597 106 45.8908C106.002 45.1846 105.824 44.4894 105.483 43.8696C105.141 43.2498 104.648 42.7254 104.048 42.3452Z" fill="#1C1C1C"/>
<path fill-rule="evenodd" clip-rule="evenodd" d="M46.244 52.9342H37.4673V32.6803H46.244C51.0278 32.6803 55.0208 28.7838 55.0208 24H57.9142V61.6145H55.0208C55.0208 56.8307 51.0278 52.9342 46.244 52.9342ZM69.4878 38.4672H72.3812C72.3812 32.0823 67.1923 26.8934 60.8075 26.8934V29.7869C65.5913 29.7869 69.4878 33.6833 69.4878 38.4672ZM60.8075 32.6803V35.5737C62.3989 35.5737 63.7009 36.8757 63.7009 38.4672H66.5944C66.5944 35.2748 63.9999 32.6803 60.8075 32.6803ZM69.4878 47.1473H72.3812C72.3812 53.5321 67.1923 58.7211 60.8075 58.7211V55.8276C65.5913 55.8276 69.4878 51.9312 69.4878 47.1473ZM63.7009 47.1473C63.7009 48.7388 62.3989 50.0408 60.8075 50.0408V52.9342C63.9999 52.9342 66.5944 50.3397 66.5944 47.1473H63.7009ZM33.6962 55.8276H37.9398C37.6505 56.6764 37.4673 57.5637 37.4673 58.4703V58.7211H38.914C39.7145 58.7211 40.3607 58.0748 40.3607 57.2744V55.8276H43.2542V57.2744C43.2542 59.6663 41.3059 61.6145 38.914 61.6145H37.4673V64.5079H40.3607V67.4014H31.6804V57.9591C31.6804 57.178 31.7769 56.416 31.9312 55.6541C31.9892 55.6617 32.0471 55.6697 32.1051 55.6777L32.2143 55.6929C32.3832 55.7163 32.5525 55.7397 32.723 55.7604C33.042 55.799 33.3648 55.8276 33.6962 55.8276ZM34.5739 32.6803H33.1271C27.3596 32.6803 22.7591 37.4738 23.0098 43.2606C23.2509 48.5941 28.0347 52.9342 33.6962 52.9342H34.5739V32.6803ZM63.7009 42.8073C63.7009 40.9265 62.4857 39.3352 60.8075 38.7372V46.8773C62.4857 46.2794 63.7009 44.688 63.7009 42.8073Z" fill="white"/>
</svg>
